G04 EAGLE Gerber RS-274X export*
G75*
%MOMM*%
%FSLAX34Y34*%
%LPD*%
%INTop Copper*%
%IPPOS*%
%AMOC8*
5,1,8,0,0,1.08239X$1,22.5*%
G01*
%ADD10C,0.130000*%
%ADD11C,0.152400*%
%ADD12R,1.980000X1.980000*%
%ADD13C,1.935000*%
%ADD14C,1.980000*%
%ADD15C,1.320800*%
%ADD16C,4.216000*%
%ADD17C,3.816000*%
%ADD18C,1.524000*%
%ADD19P,1.924489X8X202.500000*%
%ADD20R,1.778000X1.778000*%
%ADD21P,1.429621X8X112.500000*%
%ADD22P,1.429621X8X202.500000*%
%ADD23C,2.184400*%
%ADD24P,1.429621X8X22.500000*%
%ADD25P,2.749271X8X22.500000*%
%ADD26C,1.700000*%


D10*
X740000Y-100000D02*
X916120Y-100000D01*
X916120Y585000D02*
X740000Y585000D01*
X896620Y584350D02*
X896620Y-99350D01*
X893428Y-74000D01*
X899812Y-74000D01*
X896620Y-99350D01*
X895320Y-74000D01*
X897920Y-74000D02*
X896620Y-99350D01*
X894020Y-74000D01*
X899220Y-74000D02*
X896620Y-99350D01*
X893428Y559000D02*
X896620Y584350D01*
X893428Y559000D02*
X899812Y559000D01*
X896620Y584350D01*
X895320Y559000D01*
X897920Y559000D02*
X896620Y584350D01*
X894020Y559000D01*
X899220Y559000D02*
X896620Y584350D01*
D11*
X881082Y216771D02*
X881082Y211352D01*
X881082Y216771D02*
X881084Y216889D01*
X881090Y217007D01*
X881099Y217125D01*
X881113Y217242D01*
X881130Y217359D01*
X881151Y217476D01*
X881176Y217591D01*
X881205Y217706D01*
X881238Y217820D01*
X881274Y217932D01*
X881314Y218043D01*
X881357Y218153D01*
X881404Y218262D01*
X881454Y218369D01*
X881509Y218474D01*
X881566Y218577D01*
X881627Y218678D01*
X881691Y218778D01*
X881758Y218875D01*
X881828Y218970D01*
X881902Y219062D01*
X881978Y219153D01*
X882058Y219240D01*
X882140Y219325D01*
X882225Y219407D01*
X882312Y219487D01*
X882403Y219563D01*
X882495Y219637D01*
X882590Y219707D01*
X882687Y219774D01*
X882787Y219838D01*
X882888Y219899D01*
X882991Y219956D01*
X883096Y220011D01*
X883203Y220061D01*
X883312Y220108D01*
X883422Y220151D01*
X883533Y220191D01*
X883645Y220227D01*
X883759Y220260D01*
X883874Y220289D01*
X883989Y220314D01*
X884106Y220335D01*
X884223Y220352D01*
X884340Y220366D01*
X884458Y220375D01*
X884576Y220381D01*
X884694Y220383D01*
X885597Y220383D01*
X885597Y220384D02*
X885730Y220382D01*
X885862Y220376D01*
X885994Y220366D01*
X886126Y220353D01*
X886258Y220335D01*
X886388Y220314D01*
X886519Y220289D01*
X886648Y220260D01*
X886776Y220227D01*
X886904Y220191D01*
X887030Y220151D01*
X887155Y220107D01*
X887279Y220059D01*
X887401Y220008D01*
X887522Y219953D01*
X887641Y219895D01*
X887759Y219833D01*
X887874Y219768D01*
X887988Y219699D01*
X888099Y219628D01*
X888208Y219552D01*
X888315Y219474D01*
X888420Y219393D01*
X888522Y219308D01*
X888622Y219221D01*
X888719Y219131D01*
X888814Y219038D01*
X888905Y218942D01*
X888994Y218844D01*
X889080Y218743D01*
X889163Y218639D01*
X889243Y218533D01*
X889319Y218425D01*
X889393Y218315D01*
X889463Y218202D01*
X889530Y218088D01*
X889593Y217971D01*
X889653Y217853D01*
X889710Y217733D01*
X889763Y217611D01*
X889812Y217488D01*
X889858Y217364D01*
X889900Y217238D01*
X889938Y217111D01*
X889973Y216983D01*
X890004Y216854D01*
X890031Y216725D01*
X890054Y216594D01*
X890074Y216463D01*
X890089Y216331D01*
X890101Y216199D01*
X890109Y216067D01*
X890113Y215934D01*
X890113Y215802D01*
X890109Y215669D01*
X890101Y215537D01*
X890089Y215405D01*
X890074Y215273D01*
X890054Y215142D01*
X890031Y215011D01*
X890004Y214882D01*
X889973Y214753D01*
X889938Y214625D01*
X889900Y214498D01*
X889858Y214372D01*
X889812Y214248D01*
X889763Y214125D01*
X889710Y214003D01*
X889653Y213883D01*
X889593Y213765D01*
X889530Y213648D01*
X889463Y213534D01*
X889393Y213421D01*
X889319Y213311D01*
X889243Y213203D01*
X889163Y213097D01*
X889080Y212993D01*
X888994Y212892D01*
X888905Y212794D01*
X888814Y212698D01*
X888719Y212605D01*
X888622Y212515D01*
X888522Y212428D01*
X888420Y212343D01*
X888315Y212262D01*
X888208Y212184D01*
X888099Y212108D01*
X887988Y212037D01*
X887874Y211968D01*
X887759Y211903D01*
X887641Y211841D01*
X887522Y211783D01*
X887401Y211728D01*
X887279Y211677D01*
X887155Y211629D01*
X887030Y211585D01*
X886904Y211545D01*
X886776Y211509D01*
X886648Y211476D01*
X886519Y211447D01*
X886388Y211422D01*
X886258Y211401D01*
X886126Y211383D01*
X885994Y211370D01*
X885862Y211360D01*
X885730Y211354D01*
X885597Y211352D01*
X881082Y211352D01*
X880905Y211354D01*
X880727Y211361D01*
X880550Y211372D01*
X880374Y211387D01*
X880198Y211406D01*
X880022Y211430D01*
X879847Y211458D01*
X879672Y211491D01*
X879499Y211528D01*
X879326Y211569D01*
X879155Y211614D01*
X878985Y211663D01*
X878816Y211717D01*
X878648Y211774D01*
X878482Y211836D01*
X878317Y211902D01*
X878154Y211972D01*
X877993Y212046D01*
X877834Y212123D01*
X877676Y212205D01*
X877521Y212291D01*
X877368Y212380D01*
X877217Y212473D01*
X877068Y212570D01*
X876922Y212670D01*
X876778Y212774D01*
X876637Y212881D01*
X876499Y212992D01*
X876363Y213106D01*
X876230Y213224D01*
X876100Y213344D01*
X875973Y213468D01*
X875849Y213595D01*
X875729Y213725D01*
X875611Y213858D01*
X875497Y213993D01*
X875386Y214132D01*
X875279Y214273D01*
X875175Y214417D01*
X875075Y214563D01*
X874978Y214712D01*
X874885Y214863D01*
X874796Y215016D01*
X874710Y215171D01*
X874628Y215329D01*
X874551Y215488D01*
X874477Y215649D01*
X874407Y215812D01*
X874341Y215977D01*
X874279Y216143D01*
X874222Y216311D01*
X874168Y216480D01*
X874119Y216650D01*
X874074Y216821D01*
X874033Y216994D01*
X873996Y217167D01*
X873963Y217342D01*
X873935Y217517D01*
X873911Y217693D01*
X873892Y217869D01*
X873877Y218045D01*
X873866Y218222D01*
X873859Y218400D01*
X873857Y218577D01*
X885597Y226983D02*
X885464Y226985D01*
X885332Y226991D01*
X885200Y227001D01*
X885068Y227014D01*
X884936Y227032D01*
X884806Y227053D01*
X884675Y227078D01*
X884546Y227107D01*
X884418Y227140D01*
X884290Y227176D01*
X884164Y227216D01*
X884039Y227260D01*
X883915Y227308D01*
X883793Y227359D01*
X883672Y227414D01*
X883553Y227472D01*
X883435Y227534D01*
X883320Y227599D01*
X883206Y227668D01*
X883095Y227739D01*
X882986Y227815D01*
X882879Y227893D01*
X882774Y227974D01*
X882672Y228059D01*
X882572Y228146D01*
X882475Y228236D01*
X882380Y228329D01*
X882289Y228425D01*
X882200Y228523D01*
X882114Y228624D01*
X882031Y228728D01*
X881951Y228834D01*
X881875Y228942D01*
X881801Y229052D01*
X881731Y229165D01*
X881664Y229279D01*
X881601Y229396D01*
X881541Y229514D01*
X881484Y229634D01*
X881431Y229756D01*
X881382Y229879D01*
X881336Y230003D01*
X881294Y230129D01*
X881256Y230256D01*
X881221Y230384D01*
X881190Y230513D01*
X881163Y230642D01*
X881140Y230773D01*
X881120Y230904D01*
X881105Y231036D01*
X881093Y231168D01*
X881085Y231300D01*
X881081Y231433D01*
X881081Y231565D01*
X881085Y231698D01*
X881093Y231830D01*
X881105Y231962D01*
X881120Y232094D01*
X881140Y232225D01*
X881163Y232356D01*
X881190Y232485D01*
X881221Y232614D01*
X881256Y232742D01*
X881294Y232869D01*
X881336Y232995D01*
X881382Y233119D01*
X881431Y233242D01*
X881484Y233364D01*
X881541Y233484D01*
X881601Y233602D01*
X881664Y233719D01*
X881731Y233833D01*
X881801Y233946D01*
X881875Y234056D01*
X881951Y234164D01*
X882031Y234270D01*
X882114Y234374D01*
X882200Y234475D01*
X882289Y234573D01*
X882380Y234669D01*
X882475Y234762D01*
X882572Y234852D01*
X882672Y234939D01*
X882774Y235024D01*
X882879Y235105D01*
X882986Y235183D01*
X883095Y235259D01*
X883206Y235330D01*
X883320Y235399D01*
X883435Y235464D01*
X883553Y235526D01*
X883672Y235584D01*
X883793Y235639D01*
X883915Y235690D01*
X884039Y235738D01*
X884164Y235782D01*
X884290Y235822D01*
X884418Y235858D01*
X884546Y235891D01*
X884675Y235920D01*
X884806Y235945D01*
X884936Y235966D01*
X885068Y235984D01*
X885200Y235997D01*
X885332Y236007D01*
X885464Y236013D01*
X885597Y236015D01*
X885730Y236013D01*
X885862Y236007D01*
X885994Y235997D01*
X886126Y235984D01*
X886258Y235966D01*
X886388Y235945D01*
X886519Y235920D01*
X886648Y235891D01*
X886776Y235858D01*
X886904Y235822D01*
X887030Y235782D01*
X887155Y235738D01*
X887279Y235690D01*
X887401Y235639D01*
X887522Y235584D01*
X887641Y235526D01*
X887759Y235464D01*
X887874Y235399D01*
X887988Y235330D01*
X888099Y235259D01*
X888208Y235183D01*
X888315Y235105D01*
X888420Y235024D01*
X888522Y234939D01*
X888622Y234852D01*
X888719Y234762D01*
X888814Y234669D01*
X888905Y234573D01*
X888994Y234475D01*
X889080Y234374D01*
X889163Y234270D01*
X889243Y234164D01*
X889319Y234056D01*
X889393Y233946D01*
X889463Y233833D01*
X889530Y233719D01*
X889593Y233602D01*
X889653Y233484D01*
X889710Y233364D01*
X889763Y233242D01*
X889812Y233119D01*
X889858Y232995D01*
X889900Y232869D01*
X889938Y232742D01*
X889973Y232614D01*
X890004Y232485D01*
X890031Y232356D01*
X890054Y232225D01*
X890074Y232094D01*
X890089Y231962D01*
X890101Y231830D01*
X890109Y231698D01*
X890113Y231565D01*
X890113Y231433D01*
X890109Y231300D01*
X890101Y231168D01*
X890089Y231036D01*
X890074Y230904D01*
X890054Y230773D01*
X890031Y230642D01*
X890004Y230513D01*
X889973Y230384D01*
X889938Y230256D01*
X889900Y230129D01*
X889858Y230003D01*
X889812Y229879D01*
X889763Y229756D01*
X889710Y229634D01*
X889653Y229514D01*
X889593Y229396D01*
X889530Y229279D01*
X889463Y229165D01*
X889393Y229052D01*
X889319Y228942D01*
X889243Y228834D01*
X889163Y228728D01*
X889080Y228624D01*
X888994Y228523D01*
X888905Y228425D01*
X888814Y228329D01*
X888719Y228236D01*
X888622Y228146D01*
X888522Y228059D01*
X888420Y227974D01*
X888315Y227893D01*
X888208Y227815D01*
X888099Y227739D01*
X887988Y227668D01*
X887874Y227599D01*
X887759Y227534D01*
X887641Y227472D01*
X887522Y227414D01*
X887401Y227359D01*
X887279Y227308D01*
X887155Y227260D01*
X887030Y227216D01*
X886904Y227176D01*
X886776Y227140D01*
X886648Y227107D01*
X886519Y227078D01*
X886388Y227053D01*
X886258Y227032D01*
X886126Y227014D01*
X885994Y227001D01*
X885862Y226991D01*
X885730Y226985D01*
X885597Y226983D01*
X877469Y227887D02*
X877350Y227889D01*
X877230Y227895D01*
X877111Y227905D01*
X876993Y227919D01*
X876874Y227936D01*
X876757Y227958D01*
X876640Y227983D01*
X876525Y228013D01*
X876410Y228046D01*
X876296Y228083D01*
X876184Y228123D01*
X876073Y228168D01*
X875964Y228216D01*
X875856Y228267D01*
X875750Y228322D01*
X875646Y228381D01*
X875544Y228443D01*
X875444Y228508D01*
X875346Y228577D01*
X875250Y228649D01*
X875157Y228724D01*
X875067Y228801D01*
X874979Y228882D01*
X874894Y228966D01*
X874812Y229053D01*
X874732Y229142D01*
X874656Y229234D01*
X874582Y229328D01*
X874512Y229425D01*
X874445Y229523D01*
X874381Y229624D01*
X874321Y229728D01*
X874264Y229833D01*
X874211Y229940D01*
X874161Y230048D01*
X874115Y230158D01*
X874073Y230270D01*
X874034Y230383D01*
X873999Y230497D01*
X873968Y230612D01*
X873940Y230729D01*
X873917Y230846D01*
X873897Y230963D01*
X873881Y231082D01*
X873869Y231201D01*
X873861Y231320D01*
X873857Y231439D01*
X873857Y231559D01*
X873861Y231678D01*
X873869Y231797D01*
X873881Y231916D01*
X873897Y232035D01*
X873917Y232152D01*
X873940Y232269D01*
X873968Y232386D01*
X873999Y232501D01*
X874034Y232615D01*
X874073Y232728D01*
X874115Y232840D01*
X874161Y232950D01*
X874211Y233058D01*
X874264Y233165D01*
X874321Y233270D01*
X874381Y233374D01*
X874445Y233475D01*
X874512Y233573D01*
X874582Y233670D01*
X874656Y233764D01*
X874732Y233856D01*
X874812Y233945D01*
X874894Y234032D01*
X874979Y234116D01*
X875067Y234197D01*
X875157Y234274D01*
X875250Y234349D01*
X875346Y234421D01*
X875444Y234490D01*
X875544Y234555D01*
X875646Y234617D01*
X875750Y234676D01*
X875856Y234731D01*
X875964Y234782D01*
X876073Y234830D01*
X876184Y234875D01*
X876296Y234915D01*
X876410Y234952D01*
X876525Y234985D01*
X876640Y235015D01*
X876757Y235040D01*
X876874Y235062D01*
X876993Y235079D01*
X877111Y235093D01*
X877230Y235103D01*
X877350Y235109D01*
X877469Y235111D01*
X877588Y235109D01*
X877708Y235103D01*
X877827Y235093D01*
X877945Y235079D01*
X878064Y235062D01*
X878181Y235040D01*
X878298Y235015D01*
X878413Y234985D01*
X878528Y234952D01*
X878642Y234915D01*
X878754Y234875D01*
X878865Y234830D01*
X878974Y234782D01*
X879082Y234731D01*
X879188Y234676D01*
X879292Y234617D01*
X879394Y234555D01*
X879494Y234490D01*
X879592Y234421D01*
X879688Y234349D01*
X879781Y234274D01*
X879871Y234197D01*
X879959Y234116D01*
X880044Y234032D01*
X880126Y233945D01*
X880206Y233856D01*
X880282Y233764D01*
X880356Y233670D01*
X880426Y233573D01*
X880493Y233475D01*
X880557Y233374D01*
X880617Y233270D01*
X880674Y233165D01*
X880727Y233058D01*
X880777Y232950D01*
X880823Y232840D01*
X880865Y232728D01*
X880904Y232615D01*
X880939Y232501D01*
X880970Y232386D01*
X880998Y232269D01*
X881021Y232152D01*
X881041Y232035D01*
X881057Y231916D01*
X881069Y231797D01*
X881077Y231678D01*
X881081Y231559D01*
X881081Y231439D01*
X881077Y231320D01*
X881069Y231201D01*
X881057Y231082D01*
X881041Y230963D01*
X881021Y230846D01*
X880998Y230729D01*
X880970Y230612D01*
X880939Y230497D01*
X880904Y230383D01*
X880865Y230270D01*
X880823Y230158D01*
X880777Y230048D01*
X880727Y229940D01*
X880674Y229833D01*
X880617Y229728D01*
X880557Y229624D01*
X880493Y229523D01*
X880426Y229425D01*
X880356Y229328D01*
X880282Y229234D01*
X880206Y229142D01*
X880126Y229053D01*
X880044Y228966D01*
X879959Y228882D01*
X879871Y228801D01*
X879781Y228724D01*
X879688Y228649D01*
X879592Y228577D01*
X879494Y228508D01*
X879394Y228443D01*
X879292Y228381D01*
X879188Y228322D01*
X879082Y228267D01*
X878974Y228216D01*
X878865Y228168D01*
X878754Y228123D01*
X878642Y228083D01*
X878528Y228046D01*
X878413Y228013D01*
X878298Y227983D01*
X878181Y227958D01*
X878064Y227936D01*
X877945Y227919D01*
X877827Y227905D01*
X877708Y227895D01*
X877588Y227889D01*
X877469Y227887D01*
X889210Y241989D02*
X890113Y241989D01*
X889210Y241989D02*
X889210Y242892D01*
X890113Y242892D01*
X890113Y241989D01*
X890113Y248867D02*
X890113Y254286D01*
X890111Y254404D01*
X890105Y254522D01*
X890096Y254640D01*
X890082Y254757D01*
X890065Y254874D01*
X890044Y254991D01*
X890019Y255106D01*
X889990Y255221D01*
X889957Y255335D01*
X889921Y255447D01*
X889881Y255558D01*
X889838Y255668D01*
X889791Y255777D01*
X889741Y255884D01*
X889686Y255989D01*
X889629Y256092D01*
X889568Y256193D01*
X889504Y256293D01*
X889437Y256390D01*
X889367Y256485D01*
X889293Y256577D01*
X889217Y256668D01*
X889137Y256755D01*
X889055Y256840D01*
X888970Y256922D01*
X888883Y257002D01*
X888792Y257078D01*
X888700Y257152D01*
X888605Y257222D01*
X888508Y257289D01*
X888408Y257353D01*
X888307Y257414D01*
X888204Y257471D01*
X888099Y257526D01*
X887992Y257576D01*
X887883Y257623D01*
X887773Y257666D01*
X887662Y257706D01*
X887550Y257742D01*
X887436Y257775D01*
X887321Y257804D01*
X887206Y257829D01*
X887089Y257850D01*
X886972Y257867D01*
X886855Y257881D01*
X886737Y257890D01*
X886619Y257896D01*
X886501Y257898D01*
X884694Y257898D01*
X884576Y257896D01*
X884458Y257890D01*
X884340Y257881D01*
X884223Y257867D01*
X884106Y257850D01*
X883989Y257829D01*
X883874Y257804D01*
X883759Y257775D01*
X883645Y257742D01*
X883533Y257706D01*
X883422Y257666D01*
X883312Y257623D01*
X883203Y257576D01*
X883096Y257526D01*
X882991Y257471D01*
X882888Y257414D01*
X882787Y257353D01*
X882687Y257289D01*
X882590Y257222D01*
X882495Y257152D01*
X882403Y257078D01*
X882312Y257002D01*
X882225Y256922D01*
X882140Y256840D01*
X882058Y256755D01*
X881978Y256668D01*
X881902Y256577D01*
X881828Y256485D01*
X881758Y256390D01*
X881691Y256293D01*
X881627Y256193D01*
X881566Y256092D01*
X881509Y255989D01*
X881454Y255884D01*
X881404Y255777D01*
X881357Y255668D01*
X881314Y255558D01*
X881274Y255447D01*
X881238Y255335D01*
X881205Y255221D01*
X881176Y255106D01*
X881151Y254991D01*
X881130Y254874D01*
X881113Y254757D01*
X881099Y254640D01*
X881090Y254522D01*
X881084Y254404D01*
X881082Y254286D01*
X881082Y248867D01*
X873857Y248867D01*
X873857Y257898D01*
X876115Y265853D02*
X876404Y265716D01*
X876696Y265586D01*
X876992Y265463D01*
X877290Y265348D01*
X877591Y265239D01*
X877894Y265138D01*
X878200Y265044D01*
X878507Y264957D01*
X878817Y264878D01*
X879129Y264806D01*
X879442Y264742D01*
X879757Y264685D01*
X880073Y264635D01*
X880390Y264593D01*
X880708Y264559D01*
X881026Y264532D01*
X881346Y264513D01*
X881665Y264502D01*
X881985Y264498D01*
X876114Y265854D02*
X876006Y265893D01*
X875899Y265936D01*
X875794Y265982D01*
X875691Y266032D01*
X875589Y266086D01*
X875489Y266143D01*
X875391Y266204D01*
X875295Y266268D01*
X875202Y266335D01*
X875111Y266405D01*
X875022Y266479D01*
X874936Y266555D01*
X874853Y266635D01*
X874772Y266717D01*
X874694Y266802D01*
X874620Y266889D01*
X874548Y266980D01*
X874479Y267072D01*
X874414Y267167D01*
X874352Y267264D01*
X874293Y267363D01*
X874238Y267464D01*
X874187Y267567D01*
X874139Y267672D01*
X874094Y267778D01*
X874053Y267885D01*
X874016Y267994D01*
X873983Y268105D01*
X873954Y268216D01*
X873928Y268328D01*
X873906Y268441D01*
X873889Y268555D01*
X873875Y268669D01*
X873865Y268784D01*
X873859Y268899D01*
X873857Y269014D01*
X873859Y269129D01*
X873865Y269244D01*
X873875Y269359D01*
X873889Y269473D01*
X873906Y269587D01*
X873928Y269700D01*
X873954Y269812D01*
X873983Y269924D01*
X874016Y270034D01*
X874053Y270143D01*
X874094Y270251D01*
X874139Y270357D01*
X874187Y270462D01*
X874238Y270564D01*
X874294Y270666D01*
X874352Y270765D01*
X874414Y270862D01*
X874480Y270957D01*
X874548Y271049D01*
X874620Y271139D01*
X874694Y271227D01*
X874772Y271312D01*
X874853Y271394D01*
X874936Y271473D01*
X875022Y271550D01*
X875111Y271623D01*
X875202Y271694D01*
X875296Y271761D01*
X875391Y271825D01*
X875489Y271886D01*
X875589Y271943D01*
X875691Y271996D01*
X875795Y272047D01*
X875900Y272093D01*
X876007Y272136D01*
X876115Y272175D01*
X876115Y272174D02*
X876404Y272311D01*
X876696Y272441D01*
X876992Y272564D01*
X877290Y272679D01*
X877591Y272788D01*
X877894Y272889D01*
X878200Y272983D01*
X878507Y273070D01*
X878817Y273149D01*
X879129Y273221D01*
X879442Y273285D01*
X879757Y273342D01*
X880073Y273392D01*
X880390Y273434D01*
X880708Y273468D01*
X881026Y273495D01*
X881346Y273514D01*
X881665Y273525D01*
X881985Y273529D01*
X881985Y264498D02*
X882305Y264502D01*
X882624Y264513D01*
X882944Y264532D01*
X883262Y264559D01*
X883580Y264593D01*
X883897Y264635D01*
X884213Y264685D01*
X884528Y264742D01*
X884841Y264806D01*
X885153Y264878D01*
X885463Y264957D01*
X885770Y265044D01*
X886076Y265138D01*
X886379Y265239D01*
X886680Y265348D01*
X886978Y265463D01*
X887274Y265586D01*
X887566Y265716D01*
X887855Y265853D01*
X887856Y265853D02*
X887964Y265892D01*
X888071Y265935D01*
X888176Y265981D01*
X888280Y266032D01*
X888382Y266085D01*
X888482Y266142D01*
X888580Y266203D01*
X888675Y266267D01*
X888769Y266334D01*
X888860Y266405D01*
X888949Y266478D01*
X889035Y266555D01*
X889118Y266634D01*
X889199Y266716D01*
X889277Y266801D01*
X889351Y266889D01*
X889423Y266979D01*
X889492Y267072D01*
X889557Y267166D01*
X889619Y267263D01*
X889677Y267363D01*
X889733Y267464D01*
X889784Y267566D01*
X889832Y267671D01*
X889877Y267777D01*
X889918Y267885D01*
X889955Y267994D01*
X889988Y268104D01*
X890017Y268216D01*
X890043Y268328D01*
X890065Y268441D01*
X890082Y268555D01*
X890096Y268669D01*
X890106Y268784D01*
X890112Y268899D01*
X890114Y269014D01*
X887855Y272174D02*
X887566Y272311D01*
X887274Y272441D01*
X886978Y272564D01*
X886680Y272679D01*
X886379Y272788D01*
X886076Y272889D01*
X885770Y272983D01*
X885463Y273070D01*
X885153Y273149D01*
X884841Y273221D01*
X884528Y273285D01*
X884213Y273342D01*
X883897Y273392D01*
X883580Y273434D01*
X883262Y273468D01*
X882944Y273495D01*
X882624Y273514D01*
X882305Y273525D01*
X881985Y273529D01*
X887855Y272175D02*
X887963Y272136D01*
X888070Y272093D01*
X888175Y272047D01*
X888279Y271996D01*
X888381Y271943D01*
X888481Y271886D01*
X888579Y271825D01*
X888674Y271761D01*
X888768Y271694D01*
X888859Y271623D01*
X888948Y271550D01*
X889034Y271473D01*
X889117Y271394D01*
X889198Y271312D01*
X889276Y271227D01*
X889350Y271139D01*
X889422Y271049D01*
X889491Y270956D01*
X889556Y270862D01*
X889618Y270765D01*
X889676Y270665D01*
X889732Y270564D01*
X889783Y270461D01*
X889831Y270357D01*
X889876Y270251D01*
X889917Y270143D01*
X889954Y270034D01*
X889987Y269924D01*
X890016Y269812D01*
X890042Y269700D01*
X890064Y269587D01*
X890081Y269473D01*
X890095Y269359D01*
X890105Y269244D01*
X890111Y269129D01*
X890113Y269014D01*
X886501Y265401D02*
X877469Y272626D01*
D10*
X740000Y585000D02*
X740000Y712920D01*
X-50000Y712920D02*
X-50000Y585000D01*
X-49350Y693420D02*
X739350Y693420D01*
X714000Y696612D01*
X714000Y690228D01*
X739350Y693420D01*
X714000Y694720D01*
X714000Y692120D02*
X739350Y693420D01*
X714000Y696020D01*
X714000Y690820D02*
X739350Y693420D01*
X-24000Y696612D02*
X-49350Y693420D01*
X-24000Y696612D02*
X-24000Y690228D01*
X-49350Y693420D01*
X-24000Y694720D01*
X-24000Y692120D02*
X-49350Y693420D01*
X-24000Y696020D01*
X-24000Y690820D02*
X-49350Y693420D01*
D11*
X313852Y714377D02*
X313852Y716183D01*
X322883Y716183D01*
X318368Y699927D01*
X333096Y707152D02*
X338514Y707152D01*
X333096Y707152D02*
X332978Y707154D01*
X332860Y707160D01*
X332742Y707169D01*
X332625Y707183D01*
X332508Y707200D01*
X332391Y707221D01*
X332276Y707246D01*
X332161Y707275D01*
X332047Y707308D01*
X331935Y707344D01*
X331824Y707384D01*
X331714Y707427D01*
X331605Y707474D01*
X331498Y707524D01*
X331393Y707579D01*
X331290Y707636D01*
X331189Y707697D01*
X331089Y707761D01*
X330992Y707828D01*
X330897Y707898D01*
X330805Y707972D01*
X330714Y708048D01*
X330627Y708128D01*
X330542Y708210D01*
X330460Y708295D01*
X330380Y708382D01*
X330304Y708473D01*
X330230Y708565D01*
X330160Y708660D01*
X330093Y708757D01*
X330029Y708857D01*
X329968Y708958D01*
X329911Y709061D01*
X329856Y709166D01*
X329806Y709273D01*
X329759Y709382D01*
X329716Y709492D01*
X329676Y709603D01*
X329640Y709715D01*
X329607Y709829D01*
X329578Y709944D01*
X329553Y710059D01*
X329532Y710176D01*
X329515Y710293D01*
X329501Y710410D01*
X329492Y710528D01*
X329486Y710646D01*
X329484Y710764D01*
X329483Y710764D02*
X329483Y711667D01*
X329485Y711800D01*
X329491Y711932D01*
X329501Y712064D01*
X329514Y712196D01*
X329532Y712328D01*
X329553Y712458D01*
X329578Y712589D01*
X329607Y712718D01*
X329640Y712846D01*
X329676Y712974D01*
X329716Y713100D01*
X329760Y713225D01*
X329808Y713349D01*
X329859Y713471D01*
X329914Y713592D01*
X329972Y713711D01*
X330034Y713829D01*
X330099Y713944D01*
X330168Y714058D01*
X330239Y714169D01*
X330315Y714278D01*
X330393Y714385D01*
X330474Y714490D01*
X330559Y714592D01*
X330646Y714692D01*
X330736Y714789D01*
X330829Y714884D01*
X330925Y714975D01*
X331023Y715064D01*
X331124Y715150D01*
X331228Y715233D01*
X331334Y715313D01*
X331442Y715389D01*
X331552Y715463D01*
X331665Y715533D01*
X331779Y715600D01*
X331896Y715663D01*
X332014Y715723D01*
X332134Y715780D01*
X332256Y715833D01*
X332379Y715882D01*
X332503Y715928D01*
X332629Y715970D01*
X332756Y716008D01*
X332884Y716043D01*
X333013Y716074D01*
X333142Y716101D01*
X333273Y716124D01*
X333404Y716144D01*
X333536Y716159D01*
X333668Y716171D01*
X333800Y716179D01*
X333933Y716183D01*
X334065Y716183D01*
X334198Y716179D01*
X334330Y716171D01*
X334462Y716159D01*
X334594Y716144D01*
X334725Y716124D01*
X334856Y716101D01*
X334985Y716074D01*
X335114Y716043D01*
X335242Y716008D01*
X335369Y715970D01*
X335495Y715928D01*
X335619Y715882D01*
X335742Y715833D01*
X335864Y715780D01*
X335984Y715723D01*
X336102Y715663D01*
X336219Y715600D01*
X336333Y715533D01*
X336446Y715463D01*
X336556Y715389D01*
X336664Y715313D01*
X336770Y715233D01*
X336874Y715150D01*
X336975Y715064D01*
X337073Y714975D01*
X337169Y714884D01*
X337262Y714789D01*
X337352Y714692D01*
X337439Y714592D01*
X337524Y714490D01*
X337605Y714385D01*
X337683Y714278D01*
X337759Y714169D01*
X337830Y714058D01*
X337899Y713944D01*
X337964Y713829D01*
X338026Y713711D01*
X338084Y713592D01*
X338139Y713471D01*
X338190Y713349D01*
X338238Y713225D01*
X338282Y713100D01*
X338322Y712974D01*
X338358Y712846D01*
X338391Y712718D01*
X338420Y712589D01*
X338445Y712458D01*
X338466Y712328D01*
X338484Y712196D01*
X338497Y712064D01*
X338507Y711932D01*
X338513Y711800D01*
X338515Y711667D01*
X338514Y711667D02*
X338514Y707152D01*
X338512Y706977D01*
X338506Y706803D01*
X338495Y706629D01*
X338480Y706455D01*
X338461Y706281D01*
X338438Y706108D01*
X338411Y705936D01*
X338379Y705764D01*
X338344Y705593D01*
X338304Y705423D01*
X338260Y705254D01*
X338212Y705086D01*
X338160Y704919D01*
X338104Y704754D01*
X338044Y704590D01*
X337981Y704427D01*
X337913Y704267D01*
X337841Y704107D01*
X337766Y703950D01*
X337686Y703794D01*
X337603Y703641D01*
X337517Y703489D01*
X337426Y703340D01*
X337332Y703193D01*
X337235Y703048D01*
X337134Y702905D01*
X337030Y702765D01*
X336922Y702628D01*
X336811Y702493D01*
X336697Y702361D01*
X336580Y702232D01*
X336459Y702105D01*
X336336Y701982D01*
X336209Y701861D01*
X336080Y701744D01*
X335948Y701630D01*
X335813Y701519D01*
X335676Y701411D01*
X335536Y701307D01*
X335393Y701206D01*
X335248Y701109D01*
X335101Y701015D01*
X334952Y700924D01*
X334800Y700838D01*
X334647Y700755D01*
X334491Y700675D01*
X334334Y700600D01*
X334174Y700528D01*
X334014Y700460D01*
X333851Y700397D01*
X333687Y700337D01*
X333522Y700281D01*
X333355Y700229D01*
X333187Y700181D01*
X333018Y700137D01*
X332848Y700097D01*
X332677Y700062D01*
X332505Y700030D01*
X332333Y700003D01*
X332160Y699980D01*
X331986Y699961D01*
X331812Y699946D01*
X331638Y699935D01*
X331464Y699929D01*
X331289Y699927D01*
X344489Y699927D02*
X344489Y700830D01*
X345392Y700830D01*
X345392Y699927D01*
X344489Y699927D01*
X351367Y708055D02*
X351371Y708375D01*
X351382Y708694D01*
X351401Y709014D01*
X351428Y709332D01*
X351462Y709650D01*
X351504Y709967D01*
X351554Y710283D01*
X351611Y710598D01*
X351675Y710911D01*
X351747Y711223D01*
X351826Y711533D01*
X351913Y711840D01*
X352007Y712146D01*
X352108Y712449D01*
X352217Y712750D01*
X352332Y713048D01*
X352455Y713344D01*
X352585Y713636D01*
X352722Y713925D01*
X352721Y713926D02*
X352760Y714034D01*
X352803Y714141D01*
X352849Y714246D01*
X352900Y714350D01*
X352953Y714452D01*
X353010Y714552D01*
X353071Y714650D01*
X353135Y714745D01*
X353202Y714839D01*
X353273Y714930D01*
X353346Y715019D01*
X353423Y715105D01*
X353502Y715188D01*
X353584Y715269D01*
X353669Y715347D01*
X353757Y715421D01*
X353847Y715493D01*
X353939Y715561D01*
X354034Y715627D01*
X354131Y715689D01*
X354230Y715747D01*
X354332Y715803D01*
X354434Y715854D01*
X354539Y715902D01*
X354645Y715947D01*
X354753Y715988D01*
X354862Y716025D01*
X354972Y716058D01*
X355084Y716087D01*
X355196Y716113D01*
X355309Y716135D01*
X355423Y716152D01*
X355537Y716166D01*
X355652Y716176D01*
X355767Y716182D01*
X355882Y716184D01*
X355882Y716183D02*
X355997Y716181D01*
X356112Y716175D01*
X356227Y716165D01*
X356341Y716151D01*
X356455Y716134D01*
X356568Y716112D01*
X356680Y716086D01*
X356792Y716057D01*
X356902Y716024D01*
X357011Y715987D01*
X357119Y715946D01*
X357225Y715901D01*
X357330Y715853D01*
X357432Y715802D01*
X357533Y715746D01*
X357633Y715688D01*
X357730Y715626D01*
X357824Y715561D01*
X357917Y715492D01*
X358007Y715420D01*
X358095Y715346D01*
X358180Y715268D01*
X358262Y715187D01*
X358341Y715104D01*
X358418Y715018D01*
X358491Y714929D01*
X358562Y714838D01*
X358629Y714744D01*
X358693Y714649D01*
X358754Y714551D01*
X358811Y714451D01*
X358864Y714349D01*
X358915Y714245D01*
X358961Y714140D01*
X359004Y714033D01*
X359043Y713925D01*
X359180Y713636D01*
X359310Y713344D01*
X359433Y713048D01*
X359548Y712750D01*
X359657Y712449D01*
X359758Y712146D01*
X359852Y711840D01*
X359939Y711533D01*
X360018Y711223D01*
X360090Y710911D01*
X360154Y710598D01*
X360211Y710283D01*
X360261Y709967D01*
X360303Y709650D01*
X360337Y709332D01*
X360364Y709014D01*
X360383Y708694D01*
X360394Y708375D01*
X360398Y708055D01*
X351367Y708055D02*
X351371Y707735D01*
X351382Y707416D01*
X351401Y707096D01*
X351428Y706778D01*
X351462Y706460D01*
X351504Y706143D01*
X351554Y705827D01*
X351611Y705512D01*
X351675Y705199D01*
X351747Y704887D01*
X351826Y704577D01*
X351913Y704270D01*
X352007Y703964D01*
X352108Y703661D01*
X352217Y703360D01*
X352332Y703062D01*
X352455Y702766D01*
X352585Y702474D01*
X352722Y702185D01*
X352721Y702185D02*
X352760Y702077D01*
X352803Y701970D01*
X352849Y701865D01*
X352900Y701761D01*
X352953Y701659D01*
X353010Y701559D01*
X353071Y701461D01*
X353135Y701366D01*
X353202Y701272D01*
X353273Y701181D01*
X353346Y701092D01*
X353423Y701006D01*
X353502Y700923D01*
X353584Y700842D01*
X353669Y700764D01*
X353757Y700690D01*
X353847Y700618D01*
X353940Y700549D01*
X354034Y700484D01*
X354131Y700422D01*
X354231Y700364D01*
X354332Y700308D01*
X354434Y700257D01*
X354539Y700209D01*
X354645Y700164D01*
X354753Y700123D01*
X354862Y700086D01*
X354972Y700053D01*
X355084Y700024D01*
X355196Y699998D01*
X355309Y699976D01*
X355423Y699959D01*
X355537Y699945D01*
X355652Y699935D01*
X355767Y699929D01*
X355882Y699927D01*
X359043Y702185D02*
X359180Y702474D01*
X359310Y702766D01*
X359433Y703062D01*
X359548Y703360D01*
X359657Y703661D01*
X359758Y703964D01*
X359852Y704270D01*
X359939Y704577D01*
X360018Y704887D01*
X360090Y705199D01*
X360154Y705512D01*
X360211Y705827D01*
X360261Y706143D01*
X360303Y706460D01*
X360337Y706778D01*
X360364Y707096D01*
X360383Y707416D01*
X360394Y707735D01*
X360398Y708055D01*
X359043Y702185D02*
X359004Y702077D01*
X358961Y701970D01*
X358915Y701865D01*
X358864Y701761D01*
X358811Y701659D01*
X358754Y701559D01*
X358693Y701461D01*
X358629Y701366D01*
X358562Y701272D01*
X358491Y701181D01*
X358418Y701092D01*
X358341Y701006D01*
X358262Y700923D01*
X358180Y700842D01*
X358095Y700764D01*
X358007Y700690D01*
X357917Y700618D01*
X357824Y700549D01*
X357730Y700484D01*
X357633Y700422D01*
X357533Y700364D01*
X357432Y700308D01*
X357329Y700257D01*
X357225Y700209D01*
X357119Y700164D01*
X357011Y700123D01*
X356902Y700086D01*
X356792Y700053D01*
X356680Y700024D01*
X356568Y699998D01*
X356455Y699976D01*
X356341Y699959D01*
X356227Y699945D01*
X356112Y699935D01*
X355997Y699929D01*
X355882Y699927D01*
X352270Y703539D02*
X359495Y712571D01*
X366998Y708055D02*
X367002Y708375D01*
X367013Y708694D01*
X367032Y709014D01*
X367059Y709332D01*
X367093Y709650D01*
X367135Y709967D01*
X367185Y710283D01*
X367242Y710598D01*
X367306Y710911D01*
X367378Y711223D01*
X367457Y711533D01*
X367544Y711840D01*
X367638Y712146D01*
X367739Y712449D01*
X367848Y712750D01*
X367963Y713048D01*
X368086Y713344D01*
X368216Y713636D01*
X368353Y713925D01*
X368353Y713926D02*
X368392Y714034D01*
X368435Y714141D01*
X368481Y714246D01*
X368532Y714350D01*
X368585Y714452D01*
X368642Y714552D01*
X368703Y714650D01*
X368767Y714745D01*
X368834Y714839D01*
X368905Y714930D01*
X368978Y715019D01*
X369055Y715105D01*
X369134Y715188D01*
X369216Y715269D01*
X369301Y715347D01*
X369389Y715421D01*
X369479Y715493D01*
X369571Y715561D01*
X369666Y715627D01*
X369763Y715689D01*
X369862Y715747D01*
X369964Y715803D01*
X370066Y715854D01*
X370171Y715902D01*
X370277Y715947D01*
X370385Y715988D01*
X370494Y716025D01*
X370604Y716058D01*
X370716Y716087D01*
X370828Y716113D01*
X370941Y716135D01*
X371055Y716152D01*
X371169Y716166D01*
X371284Y716176D01*
X371399Y716182D01*
X371514Y716184D01*
X371514Y716183D02*
X371629Y716181D01*
X371744Y716175D01*
X371859Y716165D01*
X371973Y716151D01*
X372087Y716134D01*
X372200Y716112D01*
X372312Y716086D01*
X372424Y716057D01*
X372534Y716024D01*
X372643Y715987D01*
X372751Y715946D01*
X372857Y715901D01*
X372962Y715853D01*
X373064Y715802D01*
X373165Y715746D01*
X373265Y715688D01*
X373362Y715626D01*
X373456Y715561D01*
X373549Y715492D01*
X373639Y715420D01*
X373727Y715346D01*
X373812Y715268D01*
X373894Y715187D01*
X373973Y715104D01*
X374050Y715018D01*
X374123Y714929D01*
X374194Y714838D01*
X374261Y714744D01*
X374325Y714649D01*
X374386Y714551D01*
X374443Y714451D01*
X374496Y714349D01*
X374547Y714245D01*
X374593Y714140D01*
X374636Y714033D01*
X374675Y713925D01*
X374674Y713925D02*
X374811Y713636D01*
X374941Y713344D01*
X375064Y713048D01*
X375179Y712750D01*
X375288Y712449D01*
X375389Y712146D01*
X375483Y711840D01*
X375570Y711533D01*
X375649Y711223D01*
X375721Y710911D01*
X375785Y710598D01*
X375842Y710283D01*
X375892Y709967D01*
X375934Y709650D01*
X375968Y709332D01*
X375995Y709014D01*
X376014Y708694D01*
X376025Y708375D01*
X376029Y708055D01*
X366998Y708055D02*
X367002Y707735D01*
X367013Y707416D01*
X367032Y707096D01*
X367059Y706778D01*
X367093Y706460D01*
X367135Y706143D01*
X367185Y705827D01*
X367242Y705512D01*
X367306Y705199D01*
X367378Y704887D01*
X367457Y704577D01*
X367544Y704270D01*
X367638Y703964D01*
X367739Y703661D01*
X367848Y703360D01*
X367963Y703062D01*
X368086Y702766D01*
X368216Y702474D01*
X368353Y702185D01*
X368392Y702077D01*
X368435Y701970D01*
X368481Y701865D01*
X368532Y701761D01*
X368585Y701659D01*
X368642Y701559D01*
X368703Y701461D01*
X368767Y701366D01*
X368834Y701272D01*
X368905Y701181D01*
X368978Y701092D01*
X369055Y701006D01*
X369134Y700923D01*
X369216Y700842D01*
X369301Y700764D01*
X369389Y700690D01*
X369479Y700618D01*
X369572Y700549D01*
X369666Y700484D01*
X369763Y700422D01*
X369863Y700364D01*
X369964Y700308D01*
X370066Y700257D01*
X370171Y700209D01*
X370277Y700164D01*
X370385Y700123D01*
X370494Y700086D01*
X370604Y700053D01*
X370716Y700024D01*
X370828Y699998D01*
X370941Y699976D01*
X371055Y699959D01*
X371169Y699945D01*
X371284Y699935D01*
X371399Y699929D01*
X371514Y699927D01*
X374674Y702185D02*
X374811Y702474D01*
X374941Y702766D01*
X375064Y703062D01*
X375179Y703360D01*
X375288Y703661D01*
X375389Y703964D01*
X375483Y704270D01*
X375570Y704577D01*
X375649Y704887D01*
X375721Y705199D01*
X375785Y705512D01*
X375842Y705827D01*
X375892Y706143D01*
X375934Y706460D01*
X375968Y706778D01*
X375995Y707096D01*
X376014Y707416D01*
X376025Y707735D01*
X376029Y708055D01*
X374675Y702185D02*
X374636Y702077D01*
X374593Y701970D01*
X374547Y701865D01*
X374496Y701761D01*
X374443Y701659D01*
X374386Y701559D01*
X374325Y701461D01*
X374261Y701366D01*
X374194Y701272D01*
X374123Y701181D01*
X374050Y701092D01*
X373973Y701006D01*
X373894Y700923D01*
X373812Y700842D01*
X373727Y700764D01*
X373639Y700690D01*
X373549Y700618D01*
X373456Y700549D01*
X373362Y700484D01*
X373265Y700422D01*
X373165Y700364D01*
X373064Y700308D01*
X372961Y700257D01*
X372857Y700209D01*
X372751Y700164D01*
X372643Y700123D01*
X372534Y700086D01*
X372424Y700053D01*
X372312Y700024D01*
X372200Y699998D01*
X372087Y699976D01*
X371973Y699959D01*
X371859Y699945D01*
X371744Y699935D01*
X371629Y699929D01*
X371514Y699927D01*
X367901Y703539D02*
X375126Y712571D01*
D12*
X264200Y303220D03*
D13*
X284200Y363220D03*
D14*
X264200Y423220D03*
X142200Y423220D03*
X142200Y303220D03*
D15*
X464820Y207264D02*
X464820Y194056D01*
X464820Y270256D02*
X464820Y283464D01*
X608076Y106680D02*
X621284Y106680D01*
X621284Y132080D02*
X608076Y132080D01*
X608076Y157480D02*
X621284Y157480D01*
X621284Y182880D02*
X608076Y182880D01*
X608076Y208280D02*
X621284Y208280D01*
X621284Y233680D02*
X608076Y233680D01*
X608076Y259080D02*
X621284Y259080D01*
X621284Y284480D02*
X608076Y284480D01*
X545084Y284480D02*
X531876Y284480D01*
X531876Y259080D02*
X545084Y259080D01*
X545084Y233680D02*
X531876Y233680D01*
X531876Y208280D02*
X545084Y208280D01*
X545084Y182880D02*
X531876Y182880D01*
X531876Y157480D02*
X545084Y157480D01*
X545084Y132080D02*
X531876Y132080D01*
X531876Y106680D02*
X545084Y106680D01*
D16*
X52180Y-2540D03*
D17*
X-10320Y-2540D03*
X23680Y-50540D03*
D18*
X635000Y500380D02*
X635000Y515620D01*
X609600Y515620D02*
X609600Y500380D01*
X584200Y500380D02*
X584200Y515620D01*
X558800Y515620D02*
X558800Y500380D01*
X533400Y500380D02*
X533400Y515620D01*
X508000Y515620D02*
X508000Y500380D01*
X482600Y500380D02*
X482600Y515620D01*
X457200Y515620D02*
X457200Y500380D01*
X238760Y500380D02*
X238760Y515620D01*
X264160Y515620D02*
X264160Y500380D01*
X289560Y500380D02*
X289560Y515620D01*
X314960Y515620D02*
X314960Y500380D01*
X340360Y500380D02*
X340360Y515620D01*
X365760Y515620D02*
X365760Y500380D01*
X391160Y500380D02*
X391160Y515620D01*
X416560Y515620D02*
X416560Y500380D01*
X635000Y33020D02*
X635000Y17780D01*
X609600Y17780D02*
X609600Y33020D01*
X584200Y33020D02*
X584200Y17780D01*
X558800Y17780D02*
X558800Y33020D01*
X533400Y33020D02*
X533400Y17780D01*
X508000Y17780D02*
X508000Y33020D01*
X457200Y33020D02*
X457200Y17780D01*
X431800Y17780D02*
X431800Y33020D01*
X406400Y33020D02*
X406400Y17780D01*
X381000Y17780D02*
X381000Y33020D01*
X355600Y33020D02*
X355600Y17780D01*
X330200Y17780D02*
X330200Y33020D01*
D19*
X713740Y101600D03*
D20*
X713740Y76200D03*
D19*
X713740Y127000D03*
X713740Y152400D03*
X713740Y177800D03*
X713740Y203200D03*
X713740Y228600D03*
X713740Y254000D03*
X713740Y279400D03*
X713740Y304800D03*
X713740Y330200D03*
X713740Y355600D03*
X713740Y381000D03*
X713740Y406400D03*
X713740Y431800D03*
X713740Y457200D03*
D21*
X464820Y73660D03*
X464820Y175260D03*
D22*
X200800Y240000D03*
X99200Y240000D03*
D23*
X7620Y550380D03*
X7620Y500380D03*
X7620Y450380D03*
D22*
X350800Y240000D03*
X249200Y240000D03*
D21*
X579120Y347980D03*
X579120Y449580D03*
D22*
X350800Y127000D03*
X249200Y127000D03*
X350800Y97000D03*
X249200Y97000D03*
D24*
X99200Y97000D03*
X200800Y97000D03*
X99200Y127000D03*
X200800Y127000D03*
D22*
X200800Y210000D03*
X99200Y210000D03*
D18*
X599868Y-27394D02*
X615108Y-27394D01*
X664892Y-27394D02*
X680132Y-27394D01*
X615108Y-72606D02*
X599868Y-72606D01*
X664892Y-72606D02*
X680132Y-72606D01*
X455108Y-27394D02*
X439868Y-27394D01*
X504892Y-27394D02*
X520132Y-27394D01*
X455108Y-72606D02*
X439868Y-72606D01*
X504892Y-72606D02*
X520132Y-72606D01*
X295108Y-27394D02*
X279868Y-27394D01*
X344892Y-27394D02*
X360132Y-27394D01*
X295108Y-72606D02*
X279868Y-72606D01*
X344892Y-72606D02*
X360132Y-72606D01*
X135108Y-27394D02*
X119868Y-27394D01*
X184892Y-27394D02*
X200132Y-27394D01*
X135108Y-72606D02*
X119868Y-72606D01*
X184892Y-72606D02*
X200132Y-72606D01*
D25*
X381000Y370840D03*
X457200Y370840D03*
D21*
X391160Y220980D03*
X372110Y208280D03*
X391160Y195580D03*
D26*
X13700Y310440D03*
X13700Y345440D03*
X13700Y380440D03*
X13700Y152960D03*
X13700Y187960D03*
X13700Y222960D03*
X122480Y552720D03*
X157480Y552720D03*
X192480Y552720D03*
D11*
X714756Y85344D02*
X714756Y76200D01*
X714756Y85344D02*
X725424Y96012D01*
X725424Y217932D01*
X714756Y228600D01*
X714756Y76200D02*
X713740Y76200D01*
X714756Y254508D02*
X714756Y278892D01*
X714756Y254508D02*
X713740Y254000D01*
X714756Y278892D02*
X713740Y279400D01*
X714756Y280416D02*
X714756Y304800D01*
X714756Y280416D02*
X713740Y279400D01*
X714756Y448056D02*
X714756Y457200D01*
X714756Y448056D02*
X725424Y437388D01*
X725424Y315468D01*
X714756Y304800D01*
X714756Y457200D02*
X713740Y457200D01*
X713740Y304800D02*
X714756Y304800D01*
X714756Y252984D02*
X714756Y228600D01*
X713740Y228600D01*
X714756Y252984D02*
X713740Y254000D01*
X615696Y259080D02*
X539496Y182880D01*
X538480Y182880D01*
X614680Y259080D02*
X615696Y259080D01*
X614172Y259080D02*
X614172Y280416D01*
X614172Y283464D01*
X614680Y284480D01*
X614680Y259080D02*
X614172Y259080D01*
X391668Y370332D02*
X381000Y370332D01*
X391668Y370332D02*
X473964Y288036D01*
X473964Y266700D01*
X403860Y196596D01*
X391668Y196596D01*
X381000Y370332D02*
X381000Y370840D01*
X391668Y196596D02*
X391160Y195580D01*
X614172Y280416D02*
X713232Y280416D01*
X713740Y279400D01*
X614680Y284480D02*
X614172Y280416D01*
X201168Y126492D02*
X201168Y112776D01*
X201168Y97536D01*
X201168Y126492D02*
X200800Y127000D01*
X249936Y126492D02*
X249936Y97536D01*
X249200Y97000D01*
X249936Y126492D02*
X249200Y127000D01*
X248412Y97536D02*
X201168Y97536D01*
X200800Y97000D01*
X248412Y97536D02*
X249200Y97000D01*
X12192Y112776D02*
X12192Y19812D01*
X12192Y112776D02*
X12192Y152400D01*
X12192Y19812D02*
X-9144Y-1524D01*
X-10320Y-2540D01*
X7620Y519684D02*
X7620Y550380D01*
X7620Y519684D02*
X-6096Y505968D01*
X-6096Y172212D01*
X12192Y153924D01*
X12192Y112776D02*
X201168Y112776D01*
X22860Y-35052D02*
X22860Y-50292D01*
X22860Y-35052D02*
X-9144Y-3048D01*
X22860Y-50292D02*
X23680Y-50540D01*
X-9144Y-3048D02*
X-10320Y-2540D01*
X13700Y152960D02*
X12192Y153924D01*
X12192Y152400D02*
X13700Y152960D01*
X201168Y240792D02*
X248412Y240792D01*
X201168Y240792D02*
X200800Y240000D01*
X248412Y240792D02*
X249200Y240000D01*
X237744Y449580D02*
X7620Y449580D01*
X237744Y449580D02*
X263652Y423672D01*
X7620Y449580D02*
X7620Y450380D01*
X263652Y423672D02*
X264200Y423220D01*
X608076Y-27432D02*
X672084Y-27432D01*
X608076Y-27432D02*
X607488Y-27394D01*
X672084Y-27432D02*
X672512Y-27394D01*
X713232Y97536D02*
X713232Y100584D01*
X713232Y97536D02*
X673608Y57912D01*
X673608Y-25908D01*
X713232Y100584D02*
X713740Y101600D01*
X673608Y-25908D02*
X672512Y-27394D01*
X464820Y185928D02*
X464820Y200660D01*
X464820Y185928D02*
X464820Y175260D01*
X533400Y106680D02*
X538480Y106680D01*
X533400Y106680D02*
X464820Y175260D01*
X352044Y-27432D02*
X288036Y-27432D01*
X287488Y-27394D01*
X352044Y-27432D02*
X352512Y-27394D01*
X192024Y-27432D02*
X128016Y-27432D01*
X127488Y-27394D01*
X192024Y-27432D02*
X192512Y-27394D01*
X126492Y-25908D02*
X76200Y-25908D01*
X53340Y-3048D01*
X126492Y-25908D02*
X127488Y-27394D01*
X53340Y-3048D02*
X52180Y-2540D01*
X193548Y-27432D02*
X286512Y-27432D01*
X287488Y-27394D01*
X193548Y-27432D02*
X192512Y-27394D01*
X353568Y-27432D02*
X446532Y-27432D01*
X447488Y-27394D01*
X353568Y-27432D02*
X352512Y-27394D01*
X327660Y239268D02*
X249936Y239268D01*
X327660Y239268D02*
X381000Y185928D01*
X464820Y185928D01*
X249936Y239268D02*
X249200Y240000D01*
X614172Y156972D02*
X614172Y132588D01*
X614680Y132080D01*
X614172Y156972D02*
X614680Y157480D01*
X582168Y74676D02*
X464820Y74676D01*
X582168Y74676D02*
X614172Y106680D01*
X464820Y74676D02*
X464820Y73660D01*
X614172Y106680D02*
X614172Y131064D01*
X614680Y132080D01*
X614680Y106680D02*
X614172Y106680D01*
X664464Y128016D02*
X713232Y128016D01*
X664464Y128016D02*
X618744Y173736D01*
X527304Y173736D01*
X477012Y224028D01*
X477012Y297180D01*
X284988Y489204D01*
X18288Y489204D01*
X7620Y499872D01*
X713232Y128016D02*
X713740Y127000D01*
X7620Y499872D02*
X7620Y500380D01*
X614680Y182880D02*
X682752Y182880D01*
X713232Y152400D01*
X713740Y152400D01*
X684276Y207264D02*
X615696Y207264D01*
X684276Y207264D02*
X713740Y177800D01*
X615696Y207264D02*
X614680Y208280D01*
X615696Y233172D02*
X684276Y233172D01*
X713232Y204216D01*
X615696Y233172D02*
X614680Y233680D01*
X713232Y204216D02*
X713740Y203200D01*
X595884Y284988D02*
X539496Y284988D01*
X595884Y284988D02*
X640080Y329184D01*
X713232Y329184D01*
X539496Y284988D02*
X538480Y284480D01*
X713232Y329184D02*
X713740Y330200D01*
X579120Y449580D02*
X541020Y449580D01*
X482600Y508000D01*
X409956Y220980D02*
X391160Y220980D01*
X409956Y220980D02*
X464820Y275844D01*
X464820Y276860D01*
X309372Y301752D02*
X265176Y301752D01*
X309372Y301752D02*
X390144Y220980D01*
X265176Y301752D02*
X264200Y303220D01*
X390144Y220980D02*
X391160Y220980D01*
X135636Y309372D02*
X13716Y309372D01*
X135636Y309372D02*
X141732Y303276D01*
X13716Y309372D02*
X13700Y310440D01*
X141732Y303276D02*
X142200Y303220D01*
X266700Y345948D02*
X13716Y345948D01*
X266700Y345948D02*
X283464Y362712D01*
X13716Y345948D02*
X13700Y345440D01*
X283464Y362712D02*
X284200Y363220D01*
X100584Y381000D02*
X13716Y381000D01*
X100584Y381000D02*
X141732Y422148D01*
X13716Y381000D02*
X13700Y380440D01*
X141732Y422148D02*
X142200Y423220D01*
X352044Y126492D02*
X384048Y126492D01*
X582168Y-71628D01*
X606552Y-71628D01*
X352044Y126492D02*
X350800Y127000D01*
X606552Y-71628D02*
X607488Y-72606D01*
X608076Y-73152D02*
X672084Y-73152D01*
X672512Y-72606D01*
X608076Y-73152D02*
X607488Y-72606D01*
X358140Y96012D02*
X352044Y96012D01*
X358140Y96012D02*
X420624Y33528D01*
X420624Y13716D01*
X451104Y-16764D01*
X458724Y-16764D01*
X466344Y-24384D01*
X466344Y-53340D01*
X448056Y-71628D01*
X352044Y96012D02*
X350800Y97000D01*
X448056Y-71628D02*
X447488Y-72606D01*
X484632Y-71628D02*
X512064Y-71628D01*
X484632Y-71628D02*
X466344Y-53340D01*
X512064Y-71628D02*
X512512Y-72606D01*
X352044Y-73152D02*
X288036Y-73152D01*
X352044Y-73152D02*
X352512Y-72606D01*
X288036Y-73152D02*
X287488Y-72606D01*
X192024Y-73152D02*
X128016Y-73152D01*
X192024Y-73152D02*
X192512Y-72606D01*
X128016Y-73152D02*
X127488Y-72606D01*
X457200Y370840D02*
X457200Y508000D01*
X99060Y210312D02*
X25908Y210312D01*
X13716Y222504D01*
X99060Y210312D02*
X99200Y210000D01*
X13716Y222504D02*
X13700Y222960D01*
X605028Y509016D02*
X609600Y509016D01*
X605028Y509016D02*
X562356Y551688D01*
X193548Y551688D01*
X609600Y509016D02*
X609600Y508000D01*
X193548Y551688D02*
X192480Y552720D01*
X413004Y509016D02*
X416052Y509016D01*
X413004Y509016D02*
X381000Y541020D01*
X134112Y541020D01*
X123444Y551688D01*
X416052Y509016D02*
X416560Y508000D01*
X123444Y551688D02*
X122480Y552720D01*
M02*
