G04 EAGLE Gerber RS-274X export*
G75*
%MOMM*%
%FSLAX34Y34*%
%LPD*%
%INBottom Copper*%
%IPPOS*%
%AMOC8*
5,1,8,0,0,1.08239X$1,22.5*%
G01*
%ADD10R,1.980000X1.980000*%
%ADD11C,1.935000*%
%ADD12C,1.980000*%
%ADD13C,1.320800*%
%ADD14C,4.216000*%
%ADD15C,3.816000*%
%ADD16C,1.524000*%
%ADD17P,1.924489X8X202.500000*%
%ADD18R,1.778000X1.778000*%
%ADD19P,1.429621X8X112.500000*%
%ADD20P,1.429621X8X202.500000*%
%ADD21C,2.184400*%
%ADD22P,1.429621X8X22.500000*%
%ADD23P,2.749271X8X22.500000*%
%ADD24C,1.700000*%
%ADD25C,0.152400*%


D10*
X264200Y303220D03*
D11*
X284200Y363220D03*
D12*
X264200Y423220D03*
X142200Y423220D03*
X142200Y303220D03*
D13*
X464820Y207264D02*
X464820Y194056D01*
X464820Y270256D02*
X464820Y283464D01*
X608076Y106680D02*
X621284Y106680D01*
X621284Y132080D02*
X608076Y132080D01*
X608076Y157480D02*
X621284Y157480D01*
X621284Y182880D02*
X608076Y182880D01*
X608076Y208280D02*
X621284Y208280D01*
X621284Y233680D02*
X608076Y233680D01*
X608076Y259080D02*
X621284Y259080D01*
X621284Y284480D02*
X608076Y284480D01*
X545084Y284480D02*
X531876Y284480D01*
X531876Y259080D02*
X545084Y259080D01*
X545084Y233680D02*
X531876Y233680D01*
X531876Y208280D02*
X545084Y208280D01*
X545084Y182880D02*
X531876Y182880D01*
X531876Y157480D02*
X545084Y157480D01*
X545084Y132080D02*
X531876Y132080D01*
X531876Y106680D02*
X545084Y106680D01*
D14*
X52180Y-2540D03*
D15*
X-10320Y-2540D03*
X23680Y-50540D03*
D16*
X635000Y500380D02*
X635000Y515620D01*
X609600Y515620D02*
X609600Y500380D01*
X584200Y500380D02*
X584200Y515620D01*
X558800Y515620D02*
X558800Y500380D01*
X533400Y500380D02*
X533400Y515620D01*
X508000Y515620D02*
X508000Y500380D01*
X482600Y500380D02*
X482600Y515620D01*
X457200Y515620D02*
X457200Y500380D01*
X238760Y500380D02*
X238760Y515620D01*
X264160Y515620D02*
X264160Y500380D01*
X289560Y500380D02*
X289560Y515620D01*
X314960Y515620D02*
X314960Y500380D01*
X340360Y500380D02*
X340360Y515620D01*
X365760Y515620D02*
X365760Y500380D01*
X391160Y500380D02*
X391160Y515620D01*
X416560Y515620D02*
X416560Y500380D01*
X635000Y33020D02*
X635000Y17780D01*
X609600Y17780D02*
X609600Y33020D01*
X584200Y33020D02*
X584200Y17780D01*
X558800Y17780D02*
X558800Y33020D01*
X533400Y33020D02*
X533400Y17780D01*
X508000Y17780D02*
X508000Y33020D01*
X457200Y33020D02*
X457200Y17780D01*
X431800Y17780D02*
X431800Y33020D01*
X406400Y33020D02*
X406400Y17780D01*
X381000Y17780D02*
X381000Y33020D01*
X355600Y33020D02*
X355600Y17780D01*
X330200Y17780D02*
X330200Y33020D01*
D17*
X713740Y101600D03*
D18*
X713740Y76200D03*
D17*
X713740Y127000D03*
X713740Y152400D03*
X713740Y177800D03*
X713740Y203200D03*
X713740Y228600D03*
X713740Y254000D03*
X713740Y279400D03*
X713740Y304800D03*
X713740Y330200D03*
X713740Y355600D03*
X713740Y381000D03*
X713740Y406400D03*
X713740Y431800D03*
X713740Y457200D03*
D19*
X464820Y73660D03*
X464820Y175260D03*
D20*
X200800Y240000D03*
X99200Y240000D03*
D21*
X7620Y550380D03*
X7620Y500380D03*
X7620Y450380D03*
D20*
X350800Y240000D03*
X249200Y240000D03*
D19*
X579120Y347980D03*
X579120Y449580D03*
D20*
X350800Y127000D03*
X249200Y127000D03*
X350800Y97000D03*
X249200Y97000D03*
D22*
X99200Y97000D03*
X200800Y97000D03*
X99200Y127000D03*
X200800Y127000D03*
D20*
X200800Y210000D03*
X99200Y210000D03*
D16*
X599868Y-27394D02*
X615108Y-27394D01*
X664892Y-27394D02*
X680132Y-27394D01*
X615108Y-72606D02*
X599868Y-72606D01*
X664892Y-72606D02*
X680132Y-72606D01*
X455108Y-27394D02*
X439868Y-27394D01*
X504892Y-27394D02*
X520132Y-27394D01*
X455108Y-72606D02*
X439868Y-72606D01*
X504892Y-72606D02*
X520132Y-72606D01*
X295108Y-27394D02*
X279868Y-27394D01*
X344892Y-27394D02*
X360132Y-27394D01*
X295108Y-72606D02*
X279868Y-72606D01*
X344892Y-72606D02*
X360132Y-72606D01*
X135108Y-27394D02*
X119868Y-27394D01*
X184892Y-27394D02*
X200132Y-27394D01*
X135108Y-72606D02*
X119868Y-72606D01*
X184892Y-72606D02*
X200132Y-72606D01*
D23*
X381000Y370840D03*
X457200Y370840D03*
D19*
X391160Y220980D03*
X372110Y208280D03*
X391160Y195580D03*
D24*
X13700Y310440D03*
X13700Y345440D03*
X13700Y380440D03*
X13700Y152960D03*
X13700Y187960D03*
X13700Y222960D03*
X122480Y552720D03*
X157480Y552720D03*
X192480Y552720D03*
D25*
X391668Y195072D02*
X451104Y195072D01*
X461772Y184404D01*
X536448Y184404D01*
X537972Y182880D01*
X391668Y195072D02*
X391160Y195580D01*
X537972Y182880D02*
X538480Y182880D01*
X390144Y195072D02*
X390144Y118872D01*
X355092Y83820D01*
X262128Y83820D01*
X249936Y96012D01*
X390144Y195072D02*
X391160Y195580D01*
X249936Y96012D02*
X249200Y97000D01*
X263652Y326136D02*
X263652Y422148D01*
X263652Y326136D02*
X201168Y263652D01*
X201168Y240792D01*
X263652Y422148D02*
X264200Y423220D01*
X201168Y240792D02*
X200800Y240000D01*
X448056Y-27432D02*
X512064Y-27432D01*
X448056Y-27432D02*
X447488Y-27394D01*
X512064Y-27432D02*
X512512Y-27394D01*
X537972Y51816D02*
X537972Y106680D01*
X537972Y51816D02*
X518160Y32004D01*
X518160Y-21336D01*
X513588Y-25908D01*
X537972Y106680D02*
X538480Y106680D01*
X513588Y-25908D02*
X512512Y-27394D01*
X522732Y-25908D02*
X606552Y-25908D01*
X522732Y-25908D02*
X518160Y-21336D01*
X606552Y-25908D02*
X607488Y-27394D01*
X518160Y-21336D02*
X512512Y-27394D01*
X538480Y259080D02*
X565404Y259080D01*
X661416Y355092D01*
X713232Y355092D01*
X713740Y355600D01*
X545592Y234696D02*
X539496Y234696D01*
X545592Y234696D02*
X655320Y344424D01*
X719328Y344424D01*
X725424Y350520D01*
X725424Y370332D01*
X714756Y381000D01*
X539496Y234696D02*
X538480Y233680D01*
X713740Y381000D02*
X714756Y381000D01*
X544068Y208788D02*
X539496Y208788D01*
X544068Y208788D02*
X609600Y274320D01*
X641604Y274320D01*
X708660Y341376D01*
X720852Y341376D01*
X728472Y348996D01*
X728472Y391668D01*
X713740Y406400D01*
X539496Y208788D02*
X538480Y208280D01*
X458724Y240792D02*
X352044Y240792D01*
X458724Y240792D02*
X649224Y431292D01*
X713232Y431292D01*
X352044Y240792D02*
X350800Y240000D01*
X713232Y431292D02*
X713740Y431800D01*
X539496Y131064D02*
X539496Y124968D01*
X598932Y65532D01*
X598932Y13716D01*
X605028Y7620D01*
X617220Y7620D01*
X635000Y25400D01*
X539496Y131064D02*
X538480Y132080D01*
X539496Y150876D02*
X539496Y156972D01*
X539496Y150876D02*
X609600Y80772D01*
X609600Y25400D01*
X539496Y156972D02*
X538480Y157480D01*
X440436Y208788D02*
X373380Y208788D01*
X440436Y208788D02*
X579120Y347472D01*
X373380Y208788D02*
X372110Y208280D01*
X579120Y347472D02*
X579120Y347980D01*
X507492Y448056D02*
X507492Y507492D01*
X507492Y448056D02*
X338328Y278892D01*
X338328Y96012D01*
X347472Y86868D01*
X353568Y86868D01*
X361188Y94488D01*
X361188Y117348D01*
X352044Y126492D01*
X507492Y507492D02*
X508000Y508000D01*
X352044Y126492D02*
X350800Y127000D01*
X533400Y469392D02*
X533400Y508000D01*
X533400Y469392D02*
X341376Y277368D01*
X341376Y106680D01*
X350520Y97536D01*
X350800Y97000D01*
X118872Y96012D02*
X100584Y96012D01*
X123444Y91440D02*
X286512Y-71628D01*
X123444Y91440D02*
X118872Y96012D01*
X100584Y96012D02*
X99200Y97000D01*
X286512Y-71628D02*
X287488Y-72606D01*
X554736Y509016D02*
X557784Y509016D01*
X554736Y509016D02*
X537972Y525780D01*
X502920Y525780D01*
X493776Y516636D01*
X493776Y461772D01*
X123444Y91440D01*
X557784Y509016D02*
X558800Y508000D01*
X99060Y126492D02*
X99060Y109728D01*
X89916Y100584D01*
X89916Y-35052D01*
X126492Y-71628D01*
X99060Y126492D02*
X99200Y127000D01*
X126492Y-71628D02*
X127488Y-72606D01*
X580644Y509016D02*
X583692Y509016D01*
X580644Y509016D02*
X560832Y528828D01*
X338328Y528828D01*
X326136Y516636D01*
X326136Y496824D01*
X265176Y435864D01*
X257556Y435864D01*
X108204Y286512D01*
X108204Y135636D01*
X100584Y128016D01*
X584200Y508000D02*
X583692Y509016D01*
X100584Y128016D02*
X99200Y127000D01*
X201168Y210312D02*
X201168Y216408D01*
X390144Y405384D01*
X390144Y507492D01*
X201168Y210312D02*
X200800Y210000D01*
X390144Y507492D02*
X391160Y508000D01*
X99060Y239268D02*
X64008Y239268D01*
X13716Y188976D01*
X99060Y239268D02*
X99200Y240000D01*
X13716Y188976D02*
X13700Y187960D01*
X630936Y509016D02*
X633984Y509016D01*
X630936Y509016D02*
X598932Y541020D01*
X169164Y541020D01*
X158496Y551688D01*
X633984Y509016D02*
X635000Y508000D01*
X158496Y551688D02*
X157480Y552720D01*
M02*
