G04 EAGLE Gerber RS-274X export*
G75*
%MOMM*%
%FSLAX34Y34*%
%LPD*%
%INSilkscreen Bottom*%
%IPPOS*%
%AMOC8*
5,1,8,0,0,1.08239X$1,22.5*%
G01*
%ADD10C,0.152400*%
%ADD11C,0.127000*%


D10*
X488950Y520700D02*
X476250Y520700D01*
X469900Y514350D01*
X469900Y501650D01*
X476250Y495300D01*
X514350Y520700D02*
X520700Y514350D01*
X514350Y520700D02*
X501650Y520700D01*
X495300Y514350D01*
X495300Y501650D01*
X501650Y495300D01*
X514350Y495300D01*
X520700Y501650D01*
X495300Y514350D02*
X488950Y520700D01*
X495300Y501650D02*
X488950Y495300D01*
X476250Y495300D01*
X552450Y520700D02*
X565150Y520700D01*
X552450Y520700D02*
X546100Y514350D01*
X546100Y501650D01*
X552450Y495300D01*
X546100Y514350D02*
X539750Y520700D01*
X527050Y520700D01*
X520700Y514350D01*
X520700Y501650D01*
X527050Y495300D01*
X539750Y495300D01*
X546100Y501650D01*
X590550Y520700D02*
X596900Y514350D01*
X590550Y520700D02*
X577850Y520700D01*
X571500Y514350D01*
X571500Y501650D01*
X577850Y495300D01*
X590550Y495300D01*
X596900Y501650D01*
X571500Y514350D02*
X565150Y520700D01*
X571500Y501650D02*
X565150Y495300D01*
X552450Y495300D01*
X628650Y520700D02*
X641350Y520700D01*
X628650Y520700D02*
X622300Y514350D01*
X622300Y501650D01*
X628650Y495300D01*
X622300Y514350D02*
X615950Y520700D01*
X603250Y520700D01*
X596900Y514350D01*
X596900Y501650D01*
X603250Y495300D01*
X615950Y495300D01*
X622300Y501650D01*
X647700Y501650D02*
X647700Y514350D01*
X641350Y520700D01*
X647700Y501650D02*
X641350Y495300D01*
X628650Y495300D01*
X463550Y520700D02*
X450850Y520700D01*
X444500Y514350D01*
X444500Y501650D01*
X450850Y495300D01*
X469900Y514350D02*
X463550Y520700D01*
X469900Y501650D02*
X463550Y495300D01*
X450850Y495300D01*
D11*
X644017Y529463D02*
X644017Y538353D01*
X644017Y529463D02*
X644019Y529363D01*
X644025Y529264D01*
X644035Y529164D01*
X644048Y529066D01*
X644066Y528967D01*
X644087Y528870D01*
X644112Y528774D01*
X644141Y528678D01*
X644174Y528584D01*
X644210Y528491D01*
X644250Y528400D01*
X644294Y528310D01*
X644341Y528222D01*
X644391Y528136D01*
X644445Y528052D01*
X644502Y527970D01*
X644562Y527891D01*
X644626Y527813D01*
X644692Y527739D01*
X644761Y527667D01*
X644833Y527598D01*
X644907Y527532D01*
X644985Y527468D01*
X645064Y527408D01*
X645146Y527351D01*
X645230Y527297D01*
X645316Y527247D01*
X645404Y527200D01*
X645494Y527156D01*
X645585Y527116D01*
X645678Y527080D01*
X645772Y527047D01*
X645868Y527018D01*
X645964Y526993D01*
X646061Y526972D01*
X646160Y526954D01*
X646258Y526941D01*
X646358Y526931D01*
X646457Y526925D01*
X646557Y526923D01*
X647827Y526923D01*
X638037Y526923D02*
X638037Y538353D01*
X634862Y538353D01*
X634751Y538351D01*
X634641Y538345D01*
X634530Y538336D01*
X634420Y538322D01*
X634311Y538305D01*
X634202Y538284D01*
X634094Y538259D01*
X633987Y538230D01*
X633881Y538198D01*
X633776Y538162D01*
X633673Y538122D01*
X633571Y538079D01*
X633470Y538032D01*
X633371Y537981D01*
X633275Y537928D01*
X633180Y537871D01*
X633087Y537810D01*
X632996Y537747D01*
X632907Y537680D01*
X632821Y537610D01*
X632738Y537537D01*
X632656Y537462D01*
X632578Y537384D01*
X632503Y537302D01*
X632430Y537219D01*
X632360Y537133D01*
X632293Y537044D01*
X632230Y536953D01*
X632169Y536860D01*
X632112Y536766D01*
X632059Y536669D01*
X632008Y536570D01*
X631961Y536469D01*
X631918Y536367D01*
X631878Y536264D01*
X631842Y536159D01*
X631810Y536053D01*
X631781Y535946D01*
X631756Y535838D01*
X631735Y535729D01*
X631718Y535620D01*
X631704Y535510D01*
X631695Y535399D01*
X631689Y535289D01*
X631687Y535178D01*
X631689Y535067D01*
X631695Y534957D01*
X631704Y534846D01*
X631718Y534736D01*
X631735Y534627D01*
X631756Y534518D01*
X631781Y534410D01*
X631810Y534303D01*
X631842Y534197D01*
X631878Y534092D01*
X631918Y533989D01*
X631961Y533887D01*
X632008Y533786D01*
X632059Y533687D01*
X632112Y533591D01*
X632169Y533496D01*
X632230Y533403D01*
X632293Y533312D01*
X632360Y533223D01*
X632430Y533137D01*
X632503Y533054D01*
X632578Y532972D01*
X632656Y532894D01*
X632738Y532819D01*
X632821Y532746D01*
X632907Y532676D01*
X632996Y532609D01*
X633087Y532546D01*
X633180Y532485D01*
X633275Y532428D01*
X633371Y532375D01*
X633470Y532324D01*
X633571Y532277D01*
X633673Y532234D01*
X633776Y532194D01*
X633881Y532158D01*
X633987Y532126D01*
X634094Y532097D01*
X634202Y532072D01*
X634311Y532051D01*
X634420Y532034D01*
X634530Y532020D01*
X634641Y532011D01*
X634751Y532005D01*
X634862Y532003D01*
X638037Y532003D01*
X627178Y535813D02*
X624003Y538353D01*
X624003Y526923D01*
X627178Y526923D02*
X620828Y526923D01*
D10*
X397510Y495300D02*
X384810Y495300D01*
X397510Y495300D02*
X403860Y501650D01*
X403860Y514350D01*
X397510Y520700D01*
X359410Y495300D02*
X353060Y501650D01*
X359410Y495300D02*
X372110Y495300D01*
X378460Y501650D01*
X378460Y514350D01*
X372110Y520700D01*
X359410Y520700D01*
X353060Y514350D01*
X378460Y501650D02*
X384810Y495300D01*
X378460Y514350D02*
X384810Y520700D01*
X397510Y520700D01*
X321310Y495300D02*
X308610Y495300D01*
X321310Y495300D02*
X327660Y501650D01*
X327660Y514350D01*
X321310Y520700D01*
X327660Y501650D02*
X334010Y495300D01*
X346710Y495300D01*
X353060Y501650D01*
X353060Y514350D01*
X346710Y520700D01*
X334010Y520700D01*
X327660Y514350D01*
X283210Y495300D02*
X276860Y501650D01*
X283210Y495300D02*
X295910Y495300D01*
X302260Y501650D01*
X302260Y514350D01*
X295910Y520700D01*
X283210Y520700D01*
X276860Y514350D01*
X302260Y501650D02*
X308610Y495300D01*
X302260Y514350D02*
X308610Y520700D01*
X321310Y520700D01*
X245110Y495300D02*
X232410Y495300D01*
X245110Y495300D02*
X251460Y501650D01*
X251460Y514350D01*
X245110Y520700D01*
X251460Y501650D02*
X257810Y495300D01*
X270510Y495300D01*
X276860Y501650D01*
X276860Y514350D01*
X270510Y520700D01*
X257810Y520700D01*
X251460Y514350D01*
X226060Y514350D02*
X226060Y501650D01*
X232410Y495300D01*
X226060Y514350D02*
X232410Y520700D01*
X245110Y520700D01*
X410210Y495300D02*
X422910Y495300D01*
X429260Y501650D01*
X429260Y514350D01*
X422910Y520700D01*
X403860Y501650D02*
X410210Y495300D01*
X403860Y514350D02*
X410210Y520700D01*
X422910Y520700D01*
D11*
X249122Y489077D02*
X249122Y480187D01*
X249124Y480087D01*
X249130Y479988D01*
X249140Y479888D01*
X249153Y479790D01*
X249171Y479691D01*
X249192Y479594D01*
X249217Y479498D01*
X249246Y479402D01*
X249279Y479308D01*
X249315Y479215D01*
X249355Y479124D01*
X249399Y479034D01*
X249446Y478946D01*
X249496Y478860D01*
X249550Y478776D01*
X249607Y478694D01*
X249667Y478615D01*
X249731Y478537D01*
X249797Y478463D01*
X249866Y478391D01*
X249938Y478322D01*
X250012Y478256D01*
X250090Y478192D01*
X250169Y478132D01*
X250251Y478075D01*
X250335Y478021D01*
X250421Y477971D01*
X250509Y477924D01*
X250599Y477880D01*
X250690Y477840D01*
X250783Y477804D01*
X250877Y477771D01*
X250973Y477742D01*
X251069Y477717D01*
X251166Y477696D01*
X251265Y477678D01*
X251363Y477665D01*
X251463Y477655D01*
X251562Y477649D01*
X251662Y477647D01*
X252932Y477647D01*
X243142Y477647D02*
X243142Y489077D01*
X239967Y489077D01*
X239856Y489075D01*
X239746Y489069D01*
X239635Y489060D01*
X239525Y489046D01*
X239416Y489029D01*
X239307Y489008D01*
X239199Y488983D01*
X239092Y488954D01*
X238986Y488922D01*
X238881Y488886D01*
X238778Y488846D01*
X238676Y488803D01*
X238575Y488756D01*
X238476Y488705D01*
X238380Y488652D01*
X238285Y488595D01*
X238192Y488534D01*
X238101Y488471D01*
X238012Y488404D01*
X237926Y488334D01*
X237843Y488261D01*
X237761Y488186D01*
X237683Y488108D01*
X237608Y488026D01*
X237535Y487943D01*
X237465Y487857D01*
X237398Y487768D01*
X237335Y487677D01*
X237274Y487584D01*
X237217Y487490D01*
X237164Y487393D01*
X237113Y487294D01*
X237066Y487193D01*
X237023Y487091D01*
X236983Y486988D01*
X236947Y486883D01*
X236915Y486777D01*
X236886Y486670D01*
X236861Y486562D01*
X236840Y486453D01*
X236823Y486344D01*
X236809Y486234D01*
X236800Y486123D01*
X236794Y486013D01*
X236792Y485902D01*
X236794Y485791D01*
X236800Y485681D01*
X236809Y485570D01*
X236823Y485460D01*
X236840Y485351D01*
X236861Y485242D01*
X236886Y485134D01*
X236915Y485027D01*
X236947Y484921D01*
X236983Y484816D01*
X237023Y484713D01*
X237066Y484611D01*
X237113Y484510D01*
X237164Y484411D01*
X237217Y484315D01*
X237274Y484220D01*
X237335Y484127D01*
X237398Y484036D01*
X237465Y483947D01*
X237535Y483861D01*
X237608Y483778D01*
X237683Y483696D01*
X237761Y483618D01*
X237843Y483543D01*
X237926Y483470D01*
X238012Y483400D01*
X238101Y483333D01*
X238192Y483270D01*
X238285Y483209D01*
X238380Y483152D01*
X238476Y483099D01*
X238575Y483048D01*
X238676Y483001D01*
X238778Y482958D01*
X238881Y482918D01*
X238986Y482882D01*
X239092Y482850D01*
X239199Y482821D01*
X239307Y482796D01*
X239416Y482775D01*
X239525Y482758D01*
X239635Y482744D01*
X239746Y482735D01*
X239856Y482729D01*
X239967Y482727D01*
X243142Y482727D01*
X228791Y489078D02*
X228687Y489076D01*
X228582Y489070D01*
X228478Y489061D01*
X228375Y489048D01*
X228272Y489030D01*
X228170Y489010D01*
X228068Y488985D01*
X227968Y488957D01*
X227868Y488925D01*
X227770Y488889D01*
X227673Y488850D01*
X227578Y488808D01*
X227484Y488762D01*
X227392Y488712D01*
X227302Y488660D01*
X227214Y488604D01*
X227128Y488544D01*
X227044Y488482D01*
X226963Y488417D01*
X226884Y488349D01*
X226807Y488277D01*
X226734Y488204D01*
X226662Y488127D01*
X226594Y488048D01*
X226529Y487967D01*
X226467Y487883D01*
X226407Y487797D01*
X226351Y487709D01*
X226299Y487619D01*
X226249Y487527D01*
X226203Y487433D01*
X226161Y487338D01*
X226122Y487241D01*
X226086Y487143D01*
X226054Y487043D01*
X226026Y486943D01*
X226001Y486841D01*
X225981Y486739D01*
X225963Y486636D01*
X225950Y486533D01*
X225941Y486429D01*
X225935Y486324D01*
X225933Y486220D01*
X228791Y489077D02*
X228909Y489075D01*
X229028Y489069D01*
X229146Y489060D01*
X229263Y489047D01*
X229380Y489029D01*
X229497Y489009D01*
X229613Y488984D01*
X229728Y488956D01*
X229841Y488923D01*
X229954Y488888D01*
X230066Y488848D01*
X230176Y488806D01*
X230285Y488759D01*
X230393Y488709D01*
X230498Y488656D01*
X230602Y488599D01*
X230704Y488539D01*
X230804Y488476D01*
X230902Y488409D01*
X230998Y488340D01*
X231091Y488267D01*
X231182Y488191D01*
X231271Y488113D01*
X231357Y488031D01*
X231440Y487947D01*
X231521Y487861D01*
X231598Y487771D01*
X231673Y487680D01*
X231745Y487586D01*
X231814Y487489D01*
X231879Y487391D01*
X231942Y487290D01*
X232001Y487187D01*
X232057Y487083D01*
X232109Y486977D01*
X232158Y486869D01*
X232203Y486760D01*
X232245Y486649D01*
X232283Y486537D01*
X226885Y483998D02*
X226809Y484073D01*
X226734Y484152D01*
X226663Y484233D01*
X226594Y484317D01*
X226529Y484403D01*
X226467Y484491D01*
X226407Y484581D01*
X226351Y484673D01*
X226298Y484768D01*
X226249Y484864D01*
X226203Y484962D01*
X226160Y485061D01*
X226121Y485162D01*
X226086Y485264D01*
X226054Y485367D01*
X226026Y485471D01*
X226001Y485576D01*
X225980Y485683D01*
X225963Y485789D01*
X225950Y485896D01*
X225941Y486004D01*
X225935Y486112D01*
X225933Y486220D01*
X226886Y483997D02*
X232283Y477647D01*
X225933Y477647D01*
D10*
X552450Y38100D02*
X565150Y38100D01*
X552450Y38100D02*
X546100Y31750D01*
X546100Y19050D01*
X552450Y12700D01*
X546100Y31750D02*
X539750Y38100D01*
X527050Y38100D01*
X520700Y31750D01*
X520700Y19050D01*
X527050Y12700D01*
X539750Y12700D01*
X546100Y19050D01*
X590550Y38100D02*
X596900Y31750D01*
X590550Y38100D02*
X577850Y38100D01*
X571500Y31750D01*
X571500Y19050D01*
X577850Y12700D01*
X590550Y12700D01*
X596900Y19050D01*
X571500Y31750D02*
X565150Y38100D01*
X571500Y19050D02*
X565150Y12700D01*
X552450Y12700D01*
X628650Y38100D02*
X641350Y38100D01*
X628650Y38100D02*
X622300Y31750D01*
X622300Y19050D01*
X628650Y12700D01*
X622300Y31750D02*
X615950Y38100D01*
X603250Y38100D01*
X596900Y31750D01*
X596900Y19050D01*
X603250Y12700D01*
X615950Y12700D01*
X622300Y19050D01*
X647700Y19050D02*
X647700Y31750D01*
X641350Y38100D01*
X647700Y19050D02*
X641350Y12700D01*
X628650Y12700D01*
X514350Y38100D02*
X501650Y38100D01*
X495300Y31750D01*
X495300Y19050D01*
X501650Y12700D01*
X520700Y31750D02*
X514350Y38100D01*
X520700Y19050D02*
X514350Y12700D01*
X501650Y12700D01*
D11*
X644017Y46863D02*
X644017Y55753D01*
X644017Y46863D02*
X644019Y46763D01*
X644025Y46664D01*
X644035Y46564D01*
X644048Y46466D01*
X644066Y46367D01*
X644087Y46270D01*
X644112Y46174D01*
X644141Y46078D01*
X644174Y45984D01*
X644210Y45891D01*
X644250Y45800D01*
X644294Y45710D01*
X644341Y45622D01*
X644391Y45536D01*
X644445Y45452D01*
X644502Y45370D01*
X644562Y45291D01*
X644626Y45213D01*
X644692Y45139D01*
X644761Y45067D01*
X644833Y44998D01*
X644907Y44932D01*
X644985Y44868D01*
X645064Y44808D01*
X645146Y44751D01*
X645230Y44697D01*
X645316Y44647D01*
X645404Y44600D01*
X645494Y44556D01*
X645585Y44516D01*
X645678Y44480D01*
X645772Y44447D01*
X645868Y44418D01*
X645964Y44393D01*
X646061Y44372D01*
X646160Y44354D01*
X646258Y44341D01*
X646358Y44331D01*
X646457Y44325D01*
X646557Y44323D01*
X647827Y44323D01*
X638037Y44323D02*
X638037Y55753D01*
X634862Y55753D01*
X634751Y55751D01*
X634641Y55745D01*
X634530Y55736D01*
X634420Y55722D01*
X634311Y55705D01*
X634202Y55684D01*
X634094Y55659D01*
X633987Y55630D01*
X633881Y55598D01*
X633776Y55562D01*
X633673Y55522D01*
X633571Y55479D01*
X633470Y55432D01*
X633371Y55381D01*
X633275Y55328D01*
X633180Y55271D01*
X633087Y55210D01*
X632996Y55147D01*
X632907Y55080D01*
X632821Y55010D01*
X632738Y54937D01*
X632656Y54862D01*
X632578Y54784D01*
X632503Y54702D01*
X632430Y54619D01*
X632360Y54533D01*
X632293Y54444D01*
X632230Y54353D01*
X632169Y54260D01*
X632112Y54165D01*
X632059Y54069D01*
X632008Y53970D01*
X631961Y53869D01*
X631918Y53767D01*
X631878Y53664D01*
X631842Y53559D01*
X631810Y53453D01*
X631781Y53346D01*
X631756Y53238D01*
X631735Y53129D01*
X631718Y53020D01*
X631704Y52910D01*
X631695Y52799D01*
X631689Y52689D01*
X631687Y52578D01*
X631689Y52467D01*
X631695Y52357D01*
X631704Y52246D01*
X631718Y52136D01*
X631735Y52027D01*
X631756Y51918D01*
X631781Y51810D01*
X631810Y51703D01*
X631842Y51597D01*
X631878Y51492D01*
X631918Y51389D01*
X631961Y51287D01*
X632008Y51186D01*
X632059Y51087D01*
X632112Y50990D01*
X632169Y50896D01*
X632230Y50803D01*
X632293Y50712D01*
X632360Y50623D01*
X632430Y50537D01*
X632503Y50454D01*
X632578Y50372D01*
X632656Y50294D01*
X632738Y50219D01*
X632821Y50146D01*
X632907Y50076D01*
X632996Y50009D01*
X633087Y49946D01*
X633180Y49885D01*
X633275Y49828D01*
X633371Y49775D01*
X633470Y49724D01*
X633571Y49677D01*
X633673Y49634D01*
X633776Y49594D01*
X633881Y49558D01*
X633987Y49526D01*
X634094Y49497D01*
X634202Y49472D01*
X634311Y49451D01*
X634420Y49434D01*
X634530Y49420D01*
X634641Y49411D01*
X634751Y49405D01*
X634862Y49403D01*
X638037Y49403D01*
X627178Y44323D02*
X624003Y44323D01*
X623892Y44325D01*
X623782Y44331D01*
X623671Y44340D01*
X623561Y44354D01*
X623452Y44371D01*
X623343Y44392D01*
X623235Y44417D01*
X623128Y44446D01*
X623022Y44478D01*
X622917Y44514D01*
X622814Y44554D01*
X622712Y44597D01*
X622611Y44644D01*
X622512Y44695D01*
X622416Y44748D01*
X622321Y44805D01*
X622228Y44866D01*
X622137Y44929D01*
X622048Y44996D01*
X621962Y45066D01*
X621879Y45139D01*
X621797Y45214D01*
X621719Y45292D01*
X621644Y45374D01*
X621571Y45457D01*
X621501Y45543D01*
X621434Y45632D01*
X621371Y45723D01*
X621310Y45816D01*
X621253Y45910D01*
X621200Y46007D01*
X621149Y46106D01*
X621102Y46207D01*
X621059Y46309D01*
X621019Y46412D01*
X620983Y46517D01*
X620951Y46623D01*
X620922Y46730D01*
X620897Y46838D01*
X620876Y46947D01*
X620859Y47056D01*
X620845Y47166D01*
X620836Y47277D01*
X620830Y47387D01*
X620828Y47498D01*
X620830Y47609D01*
X620836Y47719D01*
X620845Y47830D01*
X620859Y47940D01*
X620876Y48049D01*
X620897Y48158D01*
X620922Y48266D01*
X620951Y48373D01*
X620983Y48479D01*
X621019Y48584D01*
X621059Y48687D01*
X621102Y48789D01*
X621149Y48890D01*
X621200Y48989D01*
X621253Y49085D01*
X621310Y49180D01*
X621371Y49273D01*
X621434Y49364D01*
X621501Y49453D01*
X621571Y49539D01*
X621644Y49622D01*
X621719Y49704D01*
X621797Y49782D01*
X621879Y49857D01*
X621962Y49930D01*
X622048Y50000D01*
X622137Y50067D01*
X622228Y50130D01*
X622321Y50191D01*
X622416Y50248D01*
X622512Y50301D01*
X622611Y50352D01*
X622712Y50399D01*
X622814Y50442D01*
X622917Y50482D01*
X623022Y50518D01*
X623128Y50550D01*
X623235Y50579D01*
X623343Y50604D01*
X623452Y50625D01*
X623561Y50642D01*
X623671Y50656D01*
X623782Y50665D01*
X623892Y50671D01*
X624003Y50673D01*
X623368Y55753D02*
X627178Y55753D01*
X623368Y55753D02*
X623268Y55751D01*
X623169Y55745D01*
X623069Y55735D01*
X622971Y55722D01*
X622872Y55704D01*
X622775Y55683D01*
X622679Y55658D01*
X622583Y55629D01*
X622489Y55596D01*
X622396Y55560D01*
X622305Y55520D01*
X622215Y55476D01*
X622127Y55429D01*
X622041Y55379D01*
X621957Y55325D01*
X621875Y55268D01*
X621796Y55208D01*
X621718Y55144D01*
X621644Y55078D01*
X621572Y55009D01*
X621503Y54937D01*
X621437Y54863D01*
X621373Y54785D01*
X621313Y54706D01*
X621256Y54624D01*
X621202Y54540D01*
X621152Y54454D01*
X621105Y54366D01*
X621061Y54276D01*
X621021Y54185D01*
X620985Y54092D01*
X620952Y53998D01*
X620923Y53902D01*
X620898Y53806D01*
X620877Y53709D01*
X620859Y53610D01*
X620846Y53512D01*
X620836Y53412D01*
X620830Y53313D01*
X620828Y53213D01*
X620830Y53113D01*
X620836Y53014D01*
X620846Y52914D01*
X620859Y52816D01*
X620877Y52717D01*
X620898Y52620D01*
X620923Y52524D01*
X620952Y52428D01*
X620985Y52334D01*
X621021Y52241D01*
X621061Y52150D01*
X621105Y52060D01*
X621152Y51972D01*
X621202Y51886D01*
X621256Y51802D01*
X621313Y51720D01*
X621373Y51641D01*
X621437Y51563D01*
X621503Y51489D01*
X621572Y51417D01*
X621644Y51348D01*
X621718Y51282D01*
X621796Y51218D01*
X621875Y51158D01*
X621957Y51101D01*
X622041Y51047D01*
X622127Y50997D01*
X622215Y50950D01*
X622305Y50906D01*
X622396Y50866D01*
X622489Y50830D01*
X622583Y50797D01*
X622679Y50768D01*
X622775Y50743D01*
X622872Y50722D01*
X622971Y50704D01*
X623069Y50691D01*
X623169Y50681D01*
X623268Y50675D01*
X623368Y50673D01*
X625908Y50673D01*
D10*
X387350Y38100D02*
X374650Y38100D01*
X368300Y31750D01*
X368300Y19050D01*
X374650Y12700D01*
X368300Y31750D02*
X361950Y38100D01*
X349250Y38100D01*
X342900Y31750D01*
X342900Y19050D01*
X349250Y12700D01*
X361950Y12700D01*
X368300Y19050D01*
X412750Y38100D02*
X419100Y31750D01*
X412750Y38100D02*
X400050Y38100D01*
X393700Y31750D01*
X393700Y19050D01*
X400050Y12700D01*
X412750Y12700D01*
X419100Y19050D01*
X393700Y31750D02*
X387350Y38100D01*
X393700Y19050D02*
X387350Y12700D01*
X374650Y12700D01*
X450850Y38100D02*
X463550Y38100D01*
X450850Y38100D02*
X444500Y31750D01*
X444500Y19050D01*
X450850Y12700D01*
X444500Y31750D02*
X438150Y38100D01*
X425450Y38100D01*
X419100Y31750D01*
X419100Y19050D01*
X425450Y12700D01*
X438150Y12700D01*
X444500Y19050D01*
X469900Y19050D02*
X469900Y31750D01*
X463550Y38100D01*
X469900Y19050D02*
X463550Y12700D01*
X450850Y12700D01*
X336550Y38100D02*
X323850Y38100D01*
X317500Y31750D01*
X317500Y19050D01*
X323850Y12700D01*
X342900Y31750D02*
X336550Y38100D01*
X342900Y19050D02*
X336550Y12700D01*
X323850Y12700D01*
D11*
X466217Y46863D02*
X466217Y55753D01*
X466217Y46863D02*
X466219Y46763D01*
X466225Y46664D01*
X466235Y46564D01*
X466248Y46466D01*
X466266Y46367D01*
X466287Y46270D01*
X466312Y46174D01*
X466341Y46078D01*
X466374Y45984D01*
X466410Y45891D01*
X466450Y45800D01*
X466494Y45710D01*
X466541Y45622D01*
X466591Y45536D01*
X466645Y45452D01*
X466702Y45370D01*
X466762Y45291D01*
X466826Y45213D01*
X466892Y45139D01*
X466961Y45067D01*
X467033Y44998D01*
X467107Y44932D01*
X467185Y44868D01*
X467264Y44808D01*
X467346Y44751D01*
X467430Y44697D01*
X467516Y44647D01*
X467604Y44600D01*
X467694Y44556D01*
X467785Y44516D01*
X467878Y44480D01*
X467972Y44447D01*
X468068Y44418D01*
X468164Y44393D01*
X468261Y44372D01*
X468360Y44354D01*
X468458Y44341D01*
X468558Y44331D01*
X468657Y44325D01*
X468757Y44323D01*
X470027Y44323D01*
X460237Y44323D02*
X460237Y55753D01*
X457062Y55753D01*
X456951Y55751D01*
X456841Y55745D01*
X456730Y55736D01*
X456620Y55722D01*
X456511Y55705D01*
X456402Y55684D01*
X456294Y55659D01*
X456187Y55630D01*
X456081Y55598D01*
X455976Y55562D01*
X455873Y55522D01*
X455771Y55479D01*
X455670Y55432D01*
X455571Y55381D01*
X455475Y55328D01*
X455380Y55271D01*
X455287Y55210D01*
X455196Y55147D01*
X455107Y55080D01*
X455021Y55010D01*
X454938Y54937D01*
X454856Y54862D01*
X454778Y54784D01*
X454703Y54702D01*
X454630Y54619D01*
X454560Y54533D01*
X454493Y54444D01*
X454430Y54353D01*
X454369Y54260D01*
X454312Y54165D01*
X454259Y54069D01*
X454208Y53970D01*
X454161Y53869D01*
X454118Y53767D01*
X454078Y53664D01*
X454042Y53559D01*
X454010Y53453D01*
X453981Y53346D01*
X453956Y53238D01*
X453935Y53129D01*
X453918Y53020D01*
X453904Y52910D01*
X453895Y52799D01*
X453889Y52689D01*
X453887Y52578D01*
X453889Y52467D01*
X453895Y52357D01*
X453904Y52246D01*
X453918Y52136D01*
X453935Y52027D01*
X453956Y51918D01*
X453981Y51810D01*
X454010Y51703D01*
X454042Y51597D01*
X454078Y51492D01*
X454118Y51389D01*
X454161Y51287D01*
X454208Y51186D01*
X454259Y51087D01*
X454312Y50990D01*
X454369Y50896D01*
X454430Y50803D01*
X454493Y50712D01*
X454560Y50623D01*
X454630Y50537D01*
X454703Y50454D01*
X454778Y50372D01*
X454856Y50294D01*
X454938Y50219D01*
X455021Y50146D01*
X455107Y50076D01*
X455196Y50009D01*
X455287Y49946D01*
X455380Y49885D01*
X455475Y49828D01*
X455571Y49775D01*
X455670Y49724D01*
X455771Y49677D01*
X455873Y49634D01*
X455976Y49594D01*
X456081Y49558D01*
X456187Y49526D01*
X456294Y49497D01*
X456402Y49472D01*
X456511Y49451D01*
X456620Y49434D01*
X456730Y49420D01*
X456841Y49411D01*
X456951Y49405D01*
X457062Y49403D01*
X460237Y49403D01*
X449378Y46863D02*
X446838Y55753D01*
X449378Y46863D02*
X443028Y46863D01*
X444933Y49403D02*
X444933Y44323D01*
M02*
