M48
;GenerationSoftware,Autodesk,EAGLE,9.6.2*%
;CreationDate,2021-05-22T21:47:01Z*%
FMAT,2
ICI,OFF
METRIC,TZ,000.000
T8C0.813
T7C1.016
T6C1.100
T5C1.200
T4C1.290
T3C1.320
T2C2.800
T1C3.200
%
G90
M71
T1
X5218Y-254
T2
X-1032Y-254
X2368Y-5054
T3
X26420Y30322
X26420Y42322
X14220Y42322
X14220Y30322
T4
X28420Y36322
T5
X762Y50038
X762Y45038
X762Y55038
T6
X12248Y55272
X1370Y22296
X1370Y18796
X1370Y38044
X1370Y34544
X1370Y31044
X19248Y55272
X1370Y15296
X15748Y55272
T7
X51251Y-2739
X44749Y-7261
X51251Y-7261
X28749Y-2739
X35251Y-2739
X28749Y-7261
X35251Y-7261
X12749Y-2739
X19251Y-2739
X12749Y-7261
X53340Y50800
X19251Y-7261
X38100Y37084
X45720Y37084
X63500Y50800
X60960Y50800
X58420Y50800
X55880Y50800
X50800Y50800
X48260Y50800
X45720Y50800
X23876Y50800
X26416Y50800
X28956Y50800
X31496Y50800
X34036Y50800
X36576Y50800
X39116Y50800
X41656Y50800
X63500Y2540
X60960Y2540
X58420Y2540
X53340Y2540
X50800Y2540
X45720Y2540
X43180Y2540
X40640Y2540
X38100Y2540
X35560Y2540
X33020Y2540
X55880Y2540
X60749Y-2739
X67251Y-2739
X60749Y-7261
X67251Y-7261
X44749Y-2739
T8
X46482Y20066
X46482Y27686
X61468Y10668
X61468Y13208
X61468Y15748
X61468Y18288
X61468Y20828
X61468Y23368
X61468Y25908
X61468Y28448
X53848Y25908
X53848Y23368
X53848Y20828
X57912Y34798
X57912Y44958
X35080Y12700
X24920Y12700
X35080Y9700
X24920Y9700
X9920Y9700
X20080Y9700
X9920Y12700
X20080Y12700
X20080Y21000
X71374Y15240
X71374Y25400
X71374Y27940
X71374Y30480
X71374Y33020
X71374Y35560
X71374Y38100
X71374Y40640
X71374Y43180
X71374Y45720
X46482Y7366
X46482Y17526
X20080Y24000
X9920Y24000
X71374Y20320
X71374Y22860
X71374Y17780
X35080Y24000
X24920Y24000
X39116Y22098
X37211Y20828
X39116Y19558
X71374Y12700
X71374Y7620
X71374Y10160
X53848Y28448
X53848Y10668
X53848Y13208
X53848Y15748
X53848Y18288
X9920Y21000
M30